<svg width="330" height="1231" viewBox="0 0 330 1231" fill="none" xmlns="http://www.w3.org/2000/svg">
<path opacity="0.5" d="M255.348 41.902C189.353 288.766 241.958 321.892 251.176 335.249C260.393 348.607 404.285 422.065 232.616 496.356C60.9465 570.648 49.5424 669.382 57.2409 697.084C61.3397 711.833 93.0768 774.476 51.5272 779.54C14.324 784.074 1.66432 756.828 20.0329 740.402C20.0329 740.402 32.6974 728.864 72.6715 736.486C217.063 764.019 237.102 769.079 237.389 786.506C238.804 872.559 276.751 952.325 233.082 993.571C198.147 1026.57 254.384 1194.55 269.299 1202.58" stroke="#68A957" stroke-width="6" stroke-linecap="round" stroke-dasharray="12 12"/>
<path d="M258.715 32.7534C258.664 32.947 258.673 33.1513 258.739 33.3401C258.806 33.5288 258.928 33.6932 259.089 33.8119C259.25 33.9307 259.443 33.9984 259.643 34.0063C259.843 34.0142 260.041 33.9619 260.211 33.8561L286.102 17.8096C286.275 17.7028 286.41 17.5461 286.492 17.3603C286.573 17.1744 286.596 16.9683 286.557 16.7692C286.518 16.5701 286.42 16.3875 286.275 16.2456C286.13 16.1036 285.946 16.0091 285.746 15.9745L273.776 13.8981L268.258 3.07673C268.166 2.89535 268.021 2.74626 267.842 2.64934C267.664 2.55242 267.46 2.51226 267.257 2.53423C267.055 2.5562 266.865 2.63925 266.711 2.77231C266.557 2.90537 266.448 3.08211 266.397 3.27898L258.715 32.7534V32.7534Z" fill="#ABCEA7"/>
<g clipPath="url(#clip0_440_4034)">
<path d="M294.831 1197.38C289.959 1193.48 282.842 1194.26 278.934 1199.13C277.628 1200.76 276.597 1202.7 276.54 1204.65L276.063 1220.79L291.716 1216.82C293.43 1216.38 295.395 1214.76 296.579 1213.28C300.486 1208.41 299.704 1201.29 294.831 1197.38ZM290.734 1202.49C292.784 1204.14 293.113 1207.13 291.469 1209.18C289.825 1211.23 286.829 1211.56 284.779 1209.92C282.729 1208.27 282.4 1205.28 284.044 1203.23C285.688 1201.18 288.684 1200.85 290.734 1202.49Z" fill="#ABCEA7"/>
</g>
<defs>
<clipPath id="clip0_440_4034">
<rect width="30" height="30" fill="white" transform="translate(283.129 1188) rotate(38.7272)"/>
</clipPath>
</defs>
</svg>
