<svg width="70" height="70" viewBox="0 0 70 70" fill="none" xmlns="http://www.w3.org/2000/svg">
<g filter="url(#filter0_d_457_3562)">
<path d="M34.5833 26.9667C33.868 26.9667 33.1688 27.1788 32.574 27.5762C31.9793 27.9736 31.5157 28.5384 31.242 29.1993C30.9682 29.8602 30.8966 30.5873 31.0362 31.2889C31.1757 31.9905 31.5202 32.6349 32.026 33.1407C32.5318 33.6465 33.1762 33.991 33.8778 34.1305C34.5793 34.2701 35.3065 34.1984 35.9674 33.9247C36.6282 33.651 37.1931 33.1874 37.5905 32.5926C37.9879 31.9979 38.2 31.2986 38.2 30.5833C38.2 30.1084 38.1065 29.6381 37.9247 29.1993C37.7429 28.7605 37.4765 28.3618 37.1407 28.026C36.8049 27.6901 36.4062 27.4237 35.9674 27.242C35.5286 27.0602 35.0583 26.9667 34.5833 26.9667ZM49.0646 23.3938C49.0569 22.2676 48.8495 21.1517 48.4521 20.0979C48.1594 19.3268 47.7065 18.6266 47.1233 18.0434C46.5401 17.4602 45.8398 17.0073 45.0688 16.7146C44.015 16.3171 42.8991 16.1098 41.7729 16.1021C39.8917 16 39.3375 16 34.5833 16C29.8292 16 29.275 16 27.3938 16.1021C26.2676 16.1098 25.1517 16.3171 24.0979 16.7146C23.3268 17.0073 22.6266 17.4602 22.0434 18.0434C21.4602 18.6266 21.0073 19.3268 20.7146 20.0979C20.3171 21.1517 20.1098 22.2676 20.1021 23.3938C20 25.275 20 25.8292 20 30.5833C20 35.3375 20 35.8917 20.1021 37.7729C20.1178 38.9031 20.3249 40.0224 20.7146 41.0833C21.006 41.8509 21.4585 42.5471 22.0417 43.125C22.6224 43.7117 23.3241 44.1646 24.0979 44.4521C25.1517 44.8495 26.2676 45.0569 27.3938 45.0646C29.275 45.1667 29.8292 45.1667 34.5833 45.1667C39.3375 45.1667 39.8917 45.1667 41.7729 45.0646C42.8991 45.0569 44.015 44.8495 45.0688 44.4521C45.8426 44.1646 46.5443 43.7117 47.125 43.125C47.7081 42.5471 48.1607 41.8509 48.4521 41.0833C48.8491 40.0244 49.0565 38.9038 49.0646 37.7729C49.1667 35.8917 49.1667 35.3375 49.1667 30.5833C49.1667 25.8292 49.1667 25.275 49.0646 23.3938ZM45.3604 35.0604C45.3136 35.9604 45.1216 36.8468 44.7917 37.6854C44.5086 38.385 44.0877 39.0204 43.5541 39.5541C43.0204 40.0877 42.385 40.5086 41.6854 40.7917C40.8389 41.1032 39.9475 41.2755 39.0458 41.3021H30.1208C29.2192 41.2755 28.3278 41.1032 27.4813 40.7917C26.7581 40.5229 26.105 40.0942 25.5708 39.5375C25.0424 39.0143 24.6344 38.3823 24.375 37.6854C24.0623 36.8398 23.8946 35.9473 23.8792 35.0458V26.1208C23.8946 25.2193 24.0623 24.3269 24.375 23.4813C24.6437 22.7581 25.0725 22.105 25.6292 21.5708C26.1547 21.0453 26.786 20.6376 27.4813 20.375C28.3278 20.0635 29.2192 19.8911 30.1208 19.8646H39.0458C39.9475 19.8911 40.8389 20.0635 41.6854 20.375C42.4086 20.6437 43.0617 21.0725 43.5958 21.6292C44.1242 22.1523 44.5323 22.7844 44.7917 23.4813C45.1032 24.3278 45.2755 25.2192 45.3021 26.1208V30.5833C45.3021 33.5875 45.4042 33.8937 45.3604 35.0458V35.0604ZM43.0271 24.2104C42.8535 23.7394 42.5797 23.3116 42.2247 22.9566C41.8697 22.6016 41.4419 22.3278 40.9708 22.1542C40.324 21.93 39.6428 21.8214 38.9583 21.8333H30.2083C29.5204 21.8401 28.8391 21.9684 28.1958 22.2125C27.732 22.3782 27.3087 22.6408 26.9542 22.9828C26.5997 23.3248 26.322 23.7383 26.1396 24.1958C25.9278 24.8453 25.8243 25.5252 25.8333 26.2083V34.9583C25.8478 35.6455 25.9759 36.3255 26.2125 36.9708C26.3861 37.4419 26.6599 37.8697 27.0149 38.2247C27.3699 38.5797 27.7977 38.8535 28.2688 39.0271C28.891 39.2559 29.5457 39.3839 30.2083 39.4062H38.9583C39.6463 39.3995 40.3276 39.2712 40.9708 39.0271C41.4419 38.8535 41.8697 38.5797 42.2247 38.2247C42.5797 37.8697 42.8535 37.4419 43.0271 36.9708C43.2712 36.3276 43.3995 35.6463 43.4062 34.9583V26.2083C43.4067 25.5197 43.2781 24.8371 43.0271 24.1958V24.2104ZM34.5833 36.1542C33.8524 36.1542 33.1287 36.01 32.4537 35.7298C31.7786 35.4497 31.1654 35.0391 30.6493 34.5216C30.1332 34.0041 29.7242 33.3899 29.4458 32.7141C29.1675 32.0383 29.0252 31.3142 29.0271 30.5833C29.0271 29.4809 29.3542 28.4033 29.967 27.4868C30.5797 26.5704 31.4506 25.8564 32.4694 25.4352C33.4882 25.014 34.6091 24.9045 35.6901 25.1206C36.7711 25.3368 37.7637 25.8688 38.5422 26.6493C39.3208 27.4299 39.8502 28.4239 40.0635 29.5055C40.2768 30.5871 40.1644 31.7076 39.7405 32.7253C39.3166 33.743 38.6003 34.612 37.6823 35.2224C36.7643 35.8328 35.6858 36.1571 34.5833 36.1542ZM40.4167 26.1063C40.0943 26.0721 39.7959 25.9199 39.5791 25.6789C39.3623 25.4379 39.2423 25.1252 39.2423 24.801C39.2423 24.4769 39.3623 24.1642 39.5791 23.9232C39.7959 23.6822 40.0943 23.53 40.4167 23.4958C40.739 23.53 41.0374 23.6822 41.2542 23.9232C41.471 24.1642 41.591 24.4769 41.591 24.801C41.591 25.1252 41.471 25.4379 41.2542 25.6789C41.0374 25.9199 40.739 26.0721 40.4167 26.1063Z" fill="#F3F9F9"/>
</g>
<defs>
<filter id="filter0_d_457_3562" x="0" y="0" width="69.1666" height="69.1667" filterUnits="userSpaceOnUse" color-interpolation-filters="sRGB">
<feFlood flood-opacity="0" result="BackgroundImageFix"/>
<feColorMatrix in="SourceAlpha" type="matrix" values="0 0 0 0 0 0 0 0 0 0 0 0 0 0 0 0 0 0 127 0" result="hardAlpha"/>
<feOffset dy="4"/>
<feGaussianBlur stdDeviation="10"/>
<feComposite in2="hardAlpha" operator="out"/>
<feColorMatrix type="matrix" values="0 0 0 0 0 0 0 0 0 0 0 0 0 0 0 0 0 0 0.3 0"/>
<feBlend mode="normal" in2="BackgroundImageFix" result="effect1_dropShadow_457_3562"/>
<feBlend mode="normal" in="SourceGraphic" in2="effect1_dropShadow_457_3562" result="shape"/>
</filter>
</defs>
</svg>
