<svg width="69" height="68" viewBox="0 0 69 68" fill="none" xmlns="http://www.w3.org/2000/svg">
<g filter="url(#filter0_d_457_3569)">
<path d="M45.9774 22.4748C41.7774 15.9998 33.2024 14.0748 26.5524 18.0998C20.0774 22.1248 17.9774 30.8748 22.1774 37.3498L22.5274 37.8748L21.1274 43.1248L26.3774 41.7248L26.9024 42.0748C29.1774 43.2998 31.6274 43.9998 34.0774 43.9998C36.7024 43.9998 39.3274 43.2998 41.6024 41.8998C48.0774 37.6998 50.0024 29.1248 45.9774 22.4748ZM42.3024 35.9498C41.6024 36.9998 40.7274 37.6998 39.5024 37.8748C38.8024 37.8748 37.9274 38.2248 34.4274 36.8248C31.4524 35.4248 29.0024 33.1498 27.2524 30.5248C26.2024 29.2998 25.6774 27.7248 25.5024 26.1498C25.5024 24.7498 26.0274 23.5248 26.9024 22.6498C27.2524 22.2998 27.6024 22.1248 27.9524 22.1248H28.8274C29.1774 22.1248 29.5274 22.1248 29.7024 22.8248C30.0524 23.6998 30.9274 25.7998 30.9274 25.9748C31.1024 26.1498 31.1024 26.4998 30.9274 26.6748C31.1024 27.0248 30.9274 27.3748 30.7524 27.5498C30.5774 27.7248 30.4024 28.0748 30.2274 28.2498C29.8774 28.4248 29.7024 28.7748 29.8774 29.1248C30.5774 30.1748 31.4524 31.2248 32.3274 32.0998C33.3774 32.9748 34.4274 33.6748 35.6524 34.1998C36.0024 34.3748 36.3524 34.3748 36.5274 34.0248C36.7024 33.6748 37.5774 32.7998 37.9274 32.4498C38.2774 32.0998 38.4524 32.0998 38.8024 32.2748L41.6024 33.6748C41.9524 33.8498 42.3024 34.0248 42.4774 34.1998C42.6524 34.7248 42.6524 35.4248 42.3024 35.9498Z" fill="#F3F9F9"/>
</g>
<defs>
<filter id="filter0_d_457_3569" x="0" y="0" width="68.0771" height="68" filterUnits="userSpaceOnUse" color-interpolation-filters="sRGB">
<feFlood flood-opacity="0" result="BackgroundImageFix"/>
<feColorMatrix in="SourceAlpha" type="matrix" values="0 0 0 0 0 0 0 0 0 0 0 0 0 0 0 0 0 0 127 0" result="hardAlpha"/>
<feOffset dy="4"/>
<feGaussianBlur stdDeviation="10"/>
<feComposite in2="hardAlpha" operator="out"/>
<feColorMatrix type="matrix" values="0 0 0 0 0 0 0 0 0 0 0 0 0 0 0 0 0 0 0.3 0"/>
<feBlend mode="normal" in2="BackgroundImageFix" result="effect1_dropShadow_457_3569"/>
<feBlend mode="normal" in="SourceGraphic" in2="effect1_dropShadow_457_3569" result="shape"/>
</filter>
</defs>
</svg>
