<svg width="191" height="12" viewBox="0 0 191 12" fill="none" xmlns="http://www.w3.org/2000/svg">
<path fill-rule="evenodd" clip-rule="evenodd" d="M129.651 9.68661C147.076 10.1806 165.016 11.0081 186.5 12L160.5 10L188.5 11.2727L170 9.45456L191 10L160.5 7.8182L188.5 8.54547L170 6.90911L191 7.27275L160.5 5.27275L188.5 6.00002L170 4.36366L191 4.00002L163.5 3.27275L188.5 3.09093L169 1.8182L186.5 1.39413C151.9 0.196692 126.653 -0.197035 99.25 0.0893403C71.8468 -0.197035 46.5998 0.196692 12 1.39413L34 1.27275L9.5 2.18184H30.5L7 2.72729H22.5L11 3.27275L28.5 3.63638L7.5 4.00002H41L1 5.63638L38 5.27275L7.5 7.27275L28.5 6.90911L17 8.00002L38 7.8182L7.5 10L28.5 9.45456L0 12L38 10L12 12C57.5229 9.8982 87.133 8.66236 129.651 9.68661Z" fill="#E27488"/>
</svg>
