<svg width="26" height="25" viewBox="0 0 26 25" fill="none" xmlns="http://www.w3.org/2000/svg">
<path d="M2.0815 0.0765746L25.114 11.4256C25.2396 11.4875 25.3454 11.5833 25.4193 11.7022C25.4933 11.8211 25.5325 11.9583 25.5325 12.0983C25.5325 12.2383 25.4933 12.3756 25.4193 12.4945C25.3454 12.6134 25.2396 12.7092 25.114 12.7711L2.08 24.1201C1.95096 24.1835 1.80642 24.2084 1.66359 24.192C1.52076 24.1756 1.38566 24.1184 1.27439 24.0274C1.16311 23.9363 1.08035 23.8152 1.03596 23.6785C0.99157 23.5417 0.987418 23.3951 1.024 23.2561L3.3055 14.6386C3.34248 14.4991 3.4189 14.3733 3.52559 14.2762C3.63227 14.1791 3.7647 14.1148 3.907 14.0911L14.2285 12.3706C14.29 12.3604 14.348 12.335 14.3972 12.2968C14.4465 12.2586 14.4854 12.2086 14.5105 12.1516L14.5375 12.0616C14.5515 11.9782 14.5369 11.8925 14.4961 11.8184C14.4552 11.7443 14.3905 11.6862 14.3125 11.6536L14.2285 11.6296L3.85 9.90007C3.70798 9.87607 3.57587 9.81167 3.46947 9.71458C3.36307 9.61749 3.28688 9.49181 3.25 9.35257L1.024 0.942074C0.987038 0.802934 0.990902 0.656095 1.03513 0.519091C1.07936 0.382087 1.16209 0.260708 1.27344 0.169448C1.38478 0.0781886 1.52004 0.020904 1.66307 0.00443538C1.80609 -0.0120332 1.95083 0.0130102 2.08 0.0765746H2.0815Z" fill="#ABCEA7"/>
</svg>
