<svg width="40" height="34" viewBox="0 0 40 34" fill="none" xmlns="http://www.w3.org/2000/svg">
<path d="M19.5783 0H15.6592C15.1069 0 14.6657 0.45002 14.6205 1.00045C14.3572 4.20176 12.8096 4.68966 11.7468 4.68966C5.92218 4.10345 7.66961 4.10345 5.92218 4.10345C4.17476 4.10345 1.84492 6.44828 1.26246 9.37931C0.679993 12.3103 1.84492 14.6552 4.17479 15.8276C6.50465 17 11.1644 15.8276 12.3293 15.8276C13.4942 15.8276 14.0767 15.8276 14.6592 16.4138C15.1252 16.8828 14.0767 17 13.4942 17C12.1352 16.6092 8.48503 16.0621 4.75725 17C0.0975273 18.1724 -0.245183 21.7238 0.097527 23.4483C0.680024 26.3793 3.59232 29.3103 6.50465 29.3103C9.01399 29.3103 13.4942 28.1379 14.0767 29.3103C14.4527 30.0671 14.2851 30.5587 14.1387 32.8527C14.1 33.4583 14.6157 33.9471 15.2211 33.9056C16.4723 33.8196 17.4852 33.819 18.8084 33.9107C19.3954 33.9514 19.9014 33.493 19.9014 32.9045V30.4828C19.9014 27.5517 18.9611 26.0192 17.5715 24.6207C16.4066 23.4483 14.0767 22.8621 11.1644 22.8621C8.25205 22.8621 7.0231 23.9701 6.50465 23.4483C5.9862 22.9265 6.39785 22.3833 6.50465 22.2759C7.50601 21.2681 15.8241 22.8621 16.989 22.2759L16.9891 22.2759C18.154 21.6896 19.3189 21.1034 19.9014 18.7586C20.3673 16.8828 20.4838 15.8276 19.9014 14.6552C19.0277 12.8966 17.1554 11.5147 16.4066 11.1379C15.2416 10.5517 12.2037 10.5517 9.99944 11.1379C8.236 11.6069 7.32315 11.3333 7.08715 11.1379C6.89299 10.9425 6.73767 10.4345 7.66961 9.96552C8.83454 9.37931 12.2576 9.96552 14.6592 9.96552C16.4066 9.96552 18.154 9.37931 19.3189 7.62069C20.266 6.19093 20.5909 3.00409 20.5369 0.902853C20.5236 0.389029 20.0923 0 19.5783 0Z" fill="#ABCEA7"/>
<path d="M34.6055 6.37774C34.0349 3.54441 27.758 1.46663 24.3342 0.144408C22.6223 -0.422265 21.1387 0.711075 22.0517 2.97774C22.9647 5.24441 24.3342 4.67774 24.9048 4.11108C25.4755 3.54441 26.5026 2.97774 26.0461 5.24441C25.4755 8.07774 21.4811 4.67774 21.4811 5.24441C21.4811 5.81107 20.5425 10.2 21.1132 11.9C21.3034 12.4667 25.2083 11.6999 24.5369 13.0333C24.1113 13.8788 22.733 13.7782 21.7392 13.7325C21.2582 13.7104 20.9105 14.0935 20.9105 14.575V16.4381C20.9105 16.783 21.2523 17.0244 21.5877 16.9444C24.8667 16.1625 27.2597 18.2777 28.3286 18.2777C28.8992 18.2777 29.6726 17.5667 30.2432 16.4333C30.6858 15.5542 31.3844 16.4333 31.1817 17.1444C31.0574 17.5806 29.6726 18.7 28.8992 19.9777C28.5313 20.9667 28.6347 22.1 27.3901 23.2333C26.0442 24.4588 25.6657 23.1889 26.0461 22.8111C27.1874 21.6777 28.671 19.1844 25.4755 18.2777C22.28 17.3711 21.1007 18.6555 20.9105 19.4111C20.3399 21.6777 20.507 24.677 20.9105 25.0777C21.4811 25.6444 22.6224 25.6444 23.193 25.6444C23.7636 25.6444 23.9663 25.5 24.3342 25.6444C25.0847 25.939 25.3102 27.0067 24.5369 27.2C24.0469 27.3225 23.2753 27.3436 22.2467 27.1368C21.5784 27.0024 20.908 27.4852 20.9833 28.1628C21.7522 35.0834 28.3619 33.5447 28.8993 33.0111C29.3558 32.5577 29.0895 31.6889 28.8993 31.3111C28.5188 30.5555 28.4108 30.0333 27.3901 30.0333C26.8194 30.0333 24.5369 30.6 25.1076 29.4667C25.6782 28.9 27.1874 29.3224 27.9607 28.9C28.734 28.4776 28.5313 28.3333 30.0405 27.3444C30.7141 26.903 31.7015 27.6772 31.1818 27.9111C30.2432 28.3333 29.1019 28.9 29.6726 30.0333C33.0963 36.8333 38.5999 29.0444 38.5999 27.3444C38.5999 25.6444 36.888 25.6444 36.3174 25.0777C35.8609 24.6244 35.7468 24.1333 35.7468 23.9444C35.7468 23.7555 35.8609 23.3777 36.3174 23.3777C36.888 23.3777 36.888 23.9444 38.0293 23.3777C42.5943 18.2777 38.0293 13.7444 36.3174 13.7444C34.6055 13.7444 33.6367 15.8893 32.8936 14.8777C32.1258 13.8324 34.524 12.8539 36.6716 12.636C37.3427 12.5679 37.8844 11.94 37.678 11.2977C37.2128 9.84947 36.4597 8.51922 35.3788 9.63333C33.8696 11.1889 33.0963 11.3333 31.9551 11.3333C30.3416 11.3333 30.1361 11.0258 29.4699 11.0258C28.8243 11.0258 27.9607 11.3333 27.3901 11.3333C26.8194 11.3333 26.2488 10.2 26.8194 10.2C27.1 10.2 27.3775 10.1892 27.6324 10.2008C28.0601 10.2201 28.5432 10.1491 28.8044 9.80991C29.3921 9.04676 29.6726 8.17141 29.6726 6.8C29.6726 6.37807 30.5082 6.4423 30.6111 6.94441C30.7277 7.51291 30.6473 8.23927 30.4857 8.93355C30.3251 9.62359 30.82 10.3488 31.5188 10.2325C35.0809 9.63956 34.7053 6.87327 34.6055 6.37774Z" fill="#68A957"/>
</svg>
