<svg width="200" height="34" viewBox="0 0 200 34" fill="none" xmlns="http://www.w3.org/2000/svg">
<path d="M19.5783 0H15.6592C15.1069 0 14.6657 0.45002 14.6205 1.00045C14.3572 4.20176 12.8096 4.68966 11.7468 4.68966C5.92218 4.10345 7.66961 4.10345 5.92218 4.10345C4.17476 4.10345 1.84492 6.44828 1.26246 9.37931C0.679993 12.3103 1.84492 14.6552 4.17479 15.8276C6.50465 17 11.1644 15.8276 12.3293 15.8276C13.4942 15.8276 14.0767 15.8276 14.6592 16.4138C15.1252 16.8828 14.0767 17 13.4942 17C12.1352 16.6092 8.48503 16.0621 4.75725 17C0.0975273 18.1724 -0.245183 21.7238 0.097527 23.4483C0.680024 26.3793 3.59232 29.3103 6.50465 29.3103C9.01399 29.3103 13.4942 28.1379 14.0767 29.3103C14.4527 30.0671 14.2851 30.5587 14.1387 32.8527C14.1 33.4583 14.6157 33.9471 15.2211 33.9056C16.4723 33.8196 17.4852 33.819 18.8084 33.9107C19.3954 33.9514 19.9014 33.493 19.9014 32.9045V30.4828C19.9014 27.5517 18.9611 26.0192 17.5715 24.6207C16.4066 23.4483 14.0767 22.8621 11.1644 22.8621C8.25205 22.8621 7.0231 23.9701 6.50465 23.4483C5.9862 22.9265 6.39785 22.3833 6.50465 22.2759C7.50601 21.2681 15.8241 22.8621 16.989 22.2759L16.9891 22.2759C18.154 21.6896 19.3189 21.1034 19.9014 18.7586C20.3673 16.8828 20.4838 15.8276 19.9014 14.6552C19.0277 12.8966 17.1554 11.5147 16.4066 11.1379C15.2416 10.5517 12.2037 10.5517 9.99944 11.1379C8.236 11.6069 7.32315 11.3333 7.08715 11.1379C6.89299 10.9425 6.73767 10.4345 7.66961 9.96552C8.83454 9.37931 12.2576 9.96552 14.6592 9.96552C16.4066 9.96552 18.154 9.37931 19.3189 7.62069C20.266 6.19093 20.5909 3.00409 20.5369 0.902853C20.5236 0.389029 20.0923 0 19.5783 0Z" fill="#ABCEA7"/>
<path d="M34.6055 6.37774C34.0349 3.54441 27.758 1.46663 24.3342 0.144408C22.6223 -0.422265 21.1387 0.711075 22.0517 2.97774C22.9647 5.24441 24.3342 4.67774 24.9048 4.11108C25.4755 3.54441 26.5026 2.97774 26.0461 5.24441C25.4755 8.07774 21.4811 4.67774 21.4811 5.24441C21.4811 5.81107 20.5425 10.2 21.1132 11.9C21.3034 12.4667 25.2083 11.6999 24.5369 13.0333C24.1113 13.8788 22.733 13.7782 21.7392 13.7325C21.2582 13.7104 20.9105 14.0935 20.9105 14.575V16.4381C20.9105 16.783 21.2523 17.0244 21.5877 16.9444C24.8667 16.1625 27.2597 18.2777 28.3286 18.2777C28.8992 18.2777 29.6726 17.5667 30.2432 16.4333C30.6858 15.5542 31.3844 16.4333 31.1817 17.1444C31.0574 17.5806 29.6726 18.7 28.8992 19.9777C28.5313 20.9667 28.6347 22.1 27.3901 23.2333C26.0442 24.4588 25.6657 23.1889 26.0461 22.8111C27.1874 21.6777 28.671 19.1844 25.4755 18.2777C22.28 17.3711 21.1007 18.6555 20.9105 19.4111C20.3399 21.6777 20.507 24.677 20.9105 25.0777C21.4811 25.6444 22.6224 25.6444 23.193 25.6444C23.7636 25.6444 23.9663 25.5 24.3342 25.6444C25.0847 25.939 25.3102 27.0067 24.5369 27.2C24.0469 27.3225 23.2753 27.3436 22.2467 27.1368C21.5784 27.0024 20.908 27.4852 20.9833 28.1628C21.7522 35.0834 28.3619 33.5447 28.8993 33.0111C29.3558 32.5577 29.0895 31.6889 28.8993 31.3111C28.5188 30.5555 28.4108 30.0333 27.3901 30.0333C26.8194 30.0333 24.5369 30.6 25.1076 29.4667C25.6782 28.9 27.1874 29.3224 27.9607 28.9C28.734 28.4776 28.5313 28.3333 30.0405 27.3444C30.7141 26.903 31.7015 27.6772 31.1818 27.9111C30.2432 28.3333 29.1019 28.9 29.6726 30.0333C33.0963 36.8333 38.5999 29.0444 38.5999 27.3444C38.5999 25.6444 36.888 25.6444 36.3174 25.0777C35.8609 24.6244 35.7468 24.1333 35.7468 23.9444C35.7468 23.7555 35.8609 23.3777 36.3174 23.3777C36.888 23.3777 36.888 23.9444 38.0293 23.3777C42.5943 18.2777 38.0293 13.7444 36.3174 13.7444C34.6055 13.7444 33.6367 15.8893 32.8936 14.8777C32.1258 13.8324 34.524 12.8539 36.6716 12.636C37.3427 12.5679 37.8844 11.94 37.678 11.2977C37.2128 9.84947 36.4597 8.51922 35.3788 9.63333C33.8696 11.1889 33.0963 11.3333 31.9551 11.3333C30.3416 11.3333 30.1361 11.0258 29.4699 11.0258C28.8243 11.0258 27.9607 11.3333 27.3901 11.3333C26.8194 11.3333 26.2488 10.2 26.8194 10.2C27.1 10.2 27.3775 10.1892 27.6324 10.2008C28.0601 10.2201 28.5432 10.1491 28.8044 9.80991C29.3921 9.04676 29.6726 8.17141 29.6726 6.8C29.6726 6.37807 30.5082 6.4423 30.6111 6.94441C30.7277 7.51291 30.6473 8.23927 30.4857 8.93355C30.3251 9.62359 30.82 10.3488 31.5188 10.2325C35.0809 9.63956 34.7053 6.87327 34.6055 6.37774Z" fill="#68A957"/>
<path d="M52.28 10.82H59.24V12.96H52.28V10.82ZM52.48 16.82H60.38V19H49.88V5H60.1V7.18H52.48V16.82ZM66.2408 19.14C65.3474 19.14 64.4874 19.0267 63.6608 18.8C62.8474 18.56 62.2008 18.2733 61.7208 17.94L62.6808 16.04C63.1608 16.3467 63.7341 16.6 64.4008 16.8C65.0674 17 65.7341 17.1 66.4008 17.1C67.1874 17.1 67.7541 16.9933 68.1008 16.78C68.4608 16.5667 68.6408 16.28 68.6408 15.92C68.6408 15.6267 68.5208 15.4067 68.2808 15.26C68.0408 15.1 67.7274 14.98 67.3408 14.9C66.9541 14.82 66.5208 14.7467 66.0408 14.68C65.5741 14.6133 65.1008 14.5267 64.6208 14.42C64.1541 14.3 63.7274 14.1333 63.3408 13.92C62.9541 13.6933 62.6408 13.3933 62.4008 13.02C62.1608 12.6467 62.0408 12.1533 62.0408 11.54C62.0408 10.86 62.2341 10.2733 62.6208 9.78C63.0074 9.27333 63.5474 8.88667 64.2408 8.62C64.9474 8.34 65.7808 8.2 66.7408 8.2C67.4608 8.2 68.1874 8.28 68.9208 8.44C69.6541 8.6 70.2608 8.82667 70.7408 9.12L69.7808 11.02C69.2741 10.7133 68.7608 10.5067 68.2408 10.4C67.7341 10.28 67.2274 10.22 66.7208 10.22C65.9608 10.22 65.3941 10.3333 65.0208 10.56C64.6608 10.7867 64.4808 11.0733 64.4808 11.42C64.4808 11.74 64.6008 11.98 64.8408 12.14C65.0808 12.3 65.3941 12.4267 65.7808 12.52C66.1674 12.6133 66.5941 12.6933 67.0608 12.76C67.5408 12.8133 68.0141 12.9 68.4808 13.02C68.9474 13.14 69.3741 13.3067 69.7608 13.52C70.1608 13.72 70.4808 14.0067 70.7208 14.38C70.9608 14.7533 71.0808 15.24 71.0808 15.84C71.0808 16.5067 70.8808 17.0867 70.4808 17.58C70.0941 18.0733 69.5408 18.46 68.8208 18.74C68.1008 19.0067 67.2408 19.14 66.2408 19.14ZM77.2538 19.14C76.0804 19.14 75.1738 18.84 74.5337 18.24C73.8938 17.6267 73.5738 16.7267 73.5738 15.54V5.96H76.0738V15.48C76.0738 15.9867 76.2004 16.38 76.4538 16.66C76.7204 16.94 77.0871 17.08 77.5538 17.08C78.1138 17.08 78.5804 16.9333 78.9538 16.64L79.6538 18.42C79.3604 18.66 79.0004 18.84 78.5738 18.96C78.1471 19.08 77.7071 19.14 77.2538 19.14ZM71.8138 10.4V8.4H78.9338V10.4H71.8138ZM87.7703 8.2C88.6236 8.2 89.3836 8.36667 90.0503 8.7C90.7303 9.03333 91.2636 9.54667 91.6503 10.24C92.037 10.92 92.2303 11.8 92.2303 12.88V19H89.7303V13.2C89.7303 12.2533 89.5036 11.5467 89.0503 11.08C88.6103 10.6133 87.9903 10.38 87.1903 10.38C86.6036 10.38 86.0836 10.5 85.6303 10.74C85.177 10.98 84.8236 11.34 84.5703 11.82C84.3303 12.2867 84.2103 12.88 84.2103 13.6V19H81.7103V4.16H84.2103V11.2L83.6703 10.32C84.0436 9.64 84.5836 9.12 85.2903 8.76C86.0103 8.38667 86.837 8.2 87.7703 8.2ZM100.441 19.14C99.2546 19.14 98.2146 18.9067 97.3213 18.44C96.4413 17.96 95.7546 17.3067 95.2613 16.48C94.7813 15.6533 94.5413 14.7133 94.5413 13.66C94.5413 12.5933 94.7746 11.6533 95.2413 10.84C95.7213 10.0133 96.3746 9.36667 97.2013 8.9C98.0413 8.43333 98.9946 8.2 100.061 8.2C101.101 8.2 102.028 8.42667 102.841 8.88C103.655 9.33333 104.295 9.97333 104.761 10.8C105.228 11.6267 105.461 12.6 105.461 13.72C105.461 13.8267 105.455 13.9467 105.441 14.08C105.441 14.2133 105.435 14.34 105.421 14.46H96.5213V12.8H104.101L103.121 13.32C103.135 12.7067 103.008 12.1667 102.741 11.7C102.475 11.2333 102.108 10.8667 101.641 10.6C101.188 10.3333 100.661 10.2 100.061 10.2C99.4479 10.2 98.9079 10.3333 98.4413 10.6C97.9879 10.8667 97.6279 11.24 97.3613 11.72C97.1079 12.1867 96.9813 12.74 96.9813 13.38V13.78C96.9813 14.42 97.1279 14.9867 97.4213 15.48C97.7146 15.9733 98.1279 16.3533 98.6613 16.62C99.1946 16.8867 99.8079 17.02 100.501 17.02C101.101 17.02 101.641 16.9267 102.121 16.74C102.601 16.5533 103.028 16.26 103.401 15.86L104.741 17.4C104.261 17.96 103.655 18.3933 102.921 18.7C102.201 18.9933 101.375 19.14 100.441 19.14ZM107.863 19V8.32H110.243V11.26L109.963 10.4C110.283 9.68 110.783 9.13333 111.463 8.76C112.156 8.38667 113.016 8.2 114.043 8.2V10.58C113.936 10.5533 113.836 10.54 113.743 10.54C113.649 10.5267 113.556 10.52 113.463 10.52C112.516 10.52 111.763 10.8 111.203 11.36C110.643 11.9067 110.363 12.7267 110.363 13.82V19H107.863ZM120.968 19V17.26L130.008 6.22L130.308 7.2H121.108V5H132.648V6.74L123.608 17.78L123.288 16.8H132.908V19H120.968ZM141.65 19V16.84L141.51 16.38V12.6C141.51 11.8667 141.29 11.3 140.85 10.9C140.41 10.4867 139.743 10.28 138.85 10.28C138.25 10.28 137.656 10.3733 137.07 10.56C136.496 10.7467 136.01 11.0067 135.61 11.34L134.63 9.52C135.203 9.08 135.883 8.75333 136.67 8.54C137.47 8.31333 138.296 8.2 139.15 8.2C140.696 8.2 141.89 8.57333 142.73 9.32C143.583 10.0533 144.01 11.1933 144.01 12.74V19H141.65ZM138.29 19.14C137.49 19.14 136.79 19.0067 136.19 18.74C135.59 18.46 135.123 18.08 134.79 17.6C134.47 17.1067 134.31 16.5533 134.31 15.94C134.31 15.34 134.45 14.8 134.73 14.32C135.023 13.84 135.496 13.46 136.15 13.18C136.803 12.9 137.67 12.76 138.75 12.76H141.85V14.42H138.93C138.076 14.42 137.503 14.56 137.21 14.84C136.916 15.1067 136.77 15.44 136.77 15.84C136.77 16.2933 136.95 16.6533 137.31 16.92C137.67 17.1867 138.17 17.32 138.81 17.32C139.423 17.32 139.97 17.18 140.45 16.9C140.943 16.62 141.296 16.2067 141.51 15.66L141.93 17.16C141.69 17.7867 141.256 18.2733 140.63 18.62C140.016 18.9667 139.236 19.14 138.29 19.14ZM160.698 8.2C161.551 8.2 162.305 8.36667 162.958 8.7C163.625 9.03333 164.145 9.54667 164.518 10.24C164.891 10.92 165.078 11.8 165.078 12.88V19H162.578V13.2C162.578 12.2533 162.371 11.5467 161.958 11.08C161.545 10.6133 160.951 10.38 160.178 10.38C159.631 10.38 159.145 10.5 158.718 10.74C158.305 10.98 157.978 11.3333 157.738 11.8C157.511 12.2667 157.398 12.86 157.398 13.58V19H154.898V13.2C154.898 12.2533 154.691 11.5467 154.278 11.08C153.865 10.6133 153.271 10.38 152.498 10.38C151.951 10.38 151.465 10.5 151.038 10.74C150.625 10.98 150.298 11.3333 150.058 11.8C149.831 12.2667 149.718 12.86 149.718 13.58V19H147.218V8.32H149.598V11.16L149.178 10.32C149.538 9.62667 150.058 9.1 150.738 8.74C151.431 8.38 152.218 8.2 153.098 8.2C154.098 8.2 154.965 8.44667 155.698 8.94C156.445 9.43333 156.938 10.18 157.178 11.18L156.198 10.84C156.545 10.04 157.118 9.4 157.918 8.92C158.718 8.44 159.645 8.2 160.698 8.2ZM173.092 19.14C171.999 19.14 171.026 18.9067 170.172 18.44C169.319 17.96 168.646 17.3067 168.152 16.48C167.659 15.6533 167.412 14.7133 167.412 13.66C167.412 12.5933 167.659 11.6533 168.152 10.84C168.646 10.0133 169.319 9.36667 170.172 8.9C171.026 8.43333 171.999 8.2 173.092 8.2C174.199 8.2 175.179 8.43333 176.032 8.9C176.899 9.36667 177.572 10.0067 178.052 10.82C178.546 11.6333 178.792 12.58 178.792 13.66C178.792 14.7133 178.546 15.6533 178.052 16.48C177.572 17.3067 176.899 17.96 176.032 18.44C175.179 18.9067 174.199 19.14 173.092 19.14ZM173.092 17C173.706 17 174.252 16.8667 174.732 16.6C175.212 16.3333 175.586 15.9467 175.852 15.44C176.132 14.9333 176.272 14.34 176.272 13.66C176.272 12.9667 176.132 12.3733 175.852 11.88C175.586 11.3733 175.212 10.9867 174.732 10.72C174.252 10.4533 173.712 10.32 173.112 10.32C172.499 10.32 171.952 10.4533 171.472 10.72C171.006 10.9867 170.632 11.3733 170.352 11.88C170.072 12.3733 169.932 12.9667 169.932 13.66C169.932 14.34 170.072 14.9333 170.352 15.44C170.632 15.9467 171.006 16.3333 171.472 16.6C171.952 16.8667 172.492 17 173.092 17ZM181.183 19V8.32H183.563V11.26L183.283 10.4C183.603 9.68 184.103 9.13333 184.783 8.76C185.476 8.38667 186.336 8.2 187.363 8.2V10.58C187.256 10.5533 187.156 10.54 187.063 10.54C186.97 10.5267 186.876 10.52 186.783 10.52C185.836 10.52 185.083 10.8 184.523 11.36C183.963 11.9067 183.683 12.7267 183.683 13.82V19H181.183ZM195.302 19V16.84L195.162 16.38V12.6C195.162 11.8667 194.942 11.3 194.502 10.9C194.062 10.4867 193.395 10.28 192.502 10.28C191.902 10.28 191.309 10.3733 190.722 10.56C190.149 10.7467 189.662 11.0067 189.262 11.34L188.282 9.52C188.855 9.08 189.535 8.75333 190.322 8.54C191.122 8.31333 191.949 8.2 192.802 8.2C194.349 8.2 195.542 8.57333 196.382 9.32C197.235 10.0533 197.662 11.1933 197.662 12.74V19H195.302ZM191.942 19.14C191.142 19.14 190.442 19.0067 189.842 18.74C189.242 18.46 188.775 18.08 188.442 17.6C188.122 17.1067 187.962 16.5533 187.962 15.94C187.962 15.34 188.102 14.8 188.382 14.32C188.675 13.84 189.149 13.46 189.802 13.18C190.455 12.9 191.322 12.76 192.402 12.76H195.502V14.42H192.582C191.729 14.42 191.155 14.56 190.862 14.84C190.569 15.1067 190.422 15.44 190.422 15.84C190.422 16.2933 190.602 16.6533 190.962 16.92C191.322 17.1867 191.822 17.32 192.462 17.32C193.075 17.32 193.622 17.18 194.102 16.9C194.595 16.62 194.949 16.2067 195.162 15.66L195.582 17.16C195.342 17.7867 194.909 18.2733 194.282 18.62C193.669 18.9667 192.889 19.14 191.942 19.14Z" fill="white"/>
<path d="M50.05 32V25H50.87L55.5 30.75H55.07V25H56.07V32H55.25L50.62 26.25H51.05V32H50.05ZM66.5652 32.08C65.6452 32.08 64.9219 31.8167 64.3952 31.29C63.8686 30.7633 63.6052 29.9933 63.6052 28.98V25H64.6052V28.94C64.6052 29.72 64.7752 30.29 65.1152 30.65C65.4619 31.01 65.9486 31.19 66.5752 31.19C67.2086 31.19 67.6952 31.01 68.0352 30.65C68.3819 30.29 68.5552 29.72 68.5552 28.94V25H69.5252V28.98C69.5252 29.9933 69.2619 30.7633 68.7352 31.29C68.2152 31.8167 67.4919 32.08 66.5652 32.08ZM78.3384 32V25.87H75.9384V25H81.7284V25.87H79.3284V32H78.3384ZM88.3176 32V25H91.0476C91.6609 25 92.1842 25.0967 92.6176 25.29C93.0509 25.4833 93.3842 25.7633 93.6176 26.13C93.8509 26.4967 93.9676 26.9333 93.9676 27.44C93.9676 27.9467 93.8509 28.3833 93.6176 28.75C93.3842 29.11 93.0509 29.3867 92.6176 29.58C92.1842 29.7733 91.6609 29.87 91.0476 29.87H88.8676L89.3176 29.41V32H88.3176ZM92.9976 32L91.2176 29.46H92.2876L94.0876 32H92.9976ZM89.3176 29.51L88.8676 29.02H91.0176C91.6576 29.02 92.1409 28.8833 92.4676 28.61C92.8009 28.33 92.9676 27.94 92.9676 27.44C92.9676 26.94 92.8009 26.5533 92.4676 26.28C92.1409 26.0067 91.6576 25.87 91.0176 25.87H88.8676L89.3176 25.37V29.51ZM101.083 32V25H102.083V32H101.083ZM112.809 32.08C112.276 32.08 111.782 31.9933 111.329 31.82C110.882 31.64 110.492 31.39 110.159 31.07C109.832 30.7433 109.576 30.3633 109.389 29.93C109.202 29.4967 109.109 29.02 109.109 28.5C109.109 27.98 109.202 27.5033 109.389 27.07C109.576 26.6367 109.836 26.26 110.169 25.94C110.502 25.6133 110.892 25.3633 111.339 25.19C111.792 25.01 112.286 24.92 112.819 24.92C113.359 24.92 113.856 25.0133 114.309 25.2C114.769 25.38 115.159 25.65 115.479 26.01L114.829 26.64C114.562 26.36 114.262 26.1533 113.929 26.02C113.596 25.88 113.239 25.81 112.859 25.81C112.466 25.81 112.099 25.8767 111.759 26.01C111.426 26.1433 111.136 26.33 110.889 26.57C110.642 26.81 110.449 27.0967 110.309 27.43C110.176 27.7567 110.109 28.1133 110.109 28.5C110.109 28.8867 110.176 29.2467 110.309 29.58C110.449 29.9067 110.642 30.19 110.889 30.43C111.136 30.67 111.426 30.8567 111.759 30.99C112.099 31.1233 112.466 31.19 112.859 31.19C113.239 31.19 113.596 31.1233 113.929 30.99C114.262 30.85 114.562 30.6367 114.829 30.35L115.479 30.98C115.159 31.34 114.769 31.6133 114.309 31.8C113.856 31.9867 113.356 32.08 112.809 32.08ZM122.405 32V25H123.405V32H122.405ZM134.161 32.08C133.628 32.08 133.131 31.99 132.671 31.81C132.218 31.63 131.825 31.38 131.491 31.06C131.158 30.7333 130.898 30.3533 130.711 29.92C130.525 29.4867 130.431 29.0133 130.431 28.5C130.431 27.9867 130.525 27.5133 130.711 27.08C130.898 26.6467 131.158 26.27 131.491 25.95C131.825 25.6233 132.218 25.37 132.671 25.19C133.125 25.01 133.621 24.92 134.161 24.92C134.695 24.92 135.185 25.01 135.631 25.19C136.085 25.3633 136.478 25.6133 136.811 25.94C137.151 26.26 137.411 26.6367 137.591 27.07C137.778 27.5033 137.871 27.98 137.871 28.5C137.871 29.02 137.778 29.4967 137.591 29.93C137.411 30.3633 137.151 30.7433 136.811 31.07C136.478 31.39 136.085 31.64 135.631 31.82C135.185 31.9933 134.695 32.08 134.161 32.08ZM134.161 31.19C134.548 31.19 134.905 31.1233 135.231 30.99C135.565 30.8567 135.851 30.67 136.091 30.43C136.338 30.1833 136.528 29.8967 136.661 29.57C136.801 29.2433 136.871 28.8867 136.871 28.5C136.871 28.1133 136.801 27.7567 136.661 27.43C136.528 27.1033 136.338 26.82 136.091 26.58C135.851 26.3333 135.565 26.1433 135.231 26.01C134.905 25.8767 134.548 25.81 134.161 25.81C133.768 25.81 133.405 25.8767 133.071 26.01C132.745 26.1433 132.458 26.3333 132.211 26.58C131.965 26.82 131.771 27.1033 131.631 27.43C131.498 27.7567 131.431 28.1133 131.431 28.5C131.431 28.8867 131.498 29.2433 131.631 29.57C131.771 29.8967 131.965 30.1833 132.211 30.43C132.458 30.67 132.745 30.8567 133.071 30.99C133.405 31.1233 133.768 31.19 134.161 31.19ZM144.9 32V25H145.72L150.35 30.75H149.92V25H150.92V32H150.1L145.47 26.25H145.9V32H144.9ZM158.515 32V25H159.515V32H158.515ZM169.151 32.08C168.617 32.08 168.107 32 167.621 31.84C167.134 31.6733 166.751 31.46 166.471 31.2L166.841 30.42C167.107 30.6533 167.447 30.8467 167.861 31C168.274 31.1533 168.704 31.23 169.151 31.23C169.557 31.23 169.887 31.1833 170.141 31.09C170.394 30.9967 170.581 30.87 170.701 30.71C170.821 30.5433 170.881 30.3567 170.881 30.15C170.881 29.91 170.801 29.7167 170.641 29.57C170.487 29.4233 170.284 29.3067 170.031 29.22C169.784 29.1267 169.511 29.0467 169.211 28.98C168.911 28.9133 168.607 28.8367 168.301 28.75C168.001 28.6567 167.724 28.54 167.471 28.4C167.224 28.26 167.024 28.0733 166.871 27.84C166.717 27.6 166.641 27.2933 166.641 26.92C166.641 26.56 166.734 26.23 166.921 25.93C167.114 25.6233 167.407 25.38 167.801 25.2C168.201 25.0133 168.707 24.92 169.321 24.92C169.727 24.92 170.131 24.9733 170.531 25.08C170.931 25.1867 171.277 25.34 171.571 25.54L171.241 26.34C170.941 26.14 170.624 25.9967 170.291 25.91C169.957 25.8167 169.634 25.77 169.321 25.77C168.927 25.77 168.604 25.82 168.351 25.92C168.097 26.02 167.911 26.1533 167.791 26.32C167.677 26.4867 167.621 26.6733 167.621 26.88C167.621 27.1267 167.697 27.3233 167.851 27.47C168.011 27.6167 168.214 27.7333 168.461 27.82C168.714 27.9067 168.991 27.9867 169.291 28.06C169.591 28.1267 169.891 28.2033 170.191 28.29C170.497 28.3767 170.774 28.49 171.021 28.63C171.274 28.77 171.477 28.9567 171.631 29.19C171.784 29.4233 171.861 29.7233 171.861 30.09C171.861 30.4433 171.764 30.7733 171.571 31.08C171.377 31.38 171.077 31.6233 170.671 31.81C170.271 31.99 169.764 32.08 169.151 32.08ZM180.114 32V25.87H177.714V25H183.504V25.87H181.104V32H180.114ZM188.681 32L191.851 25H192.841L196.021 32H194.971L192.141 25.56H192.541L189.711 32H188.681ZM190.031 30.25L190.301 29.45H194.241L194.531 30.25H190.031Z" fill="#998208"/>
</svg>
