<svg width="30" height="30" viewBox="0 0 30 30" fill="none" xmlns="http://www.w3.org/2000/svg">
<path d="M15 2.5C8.1 2.5 2.5 8.1 2.5 15C2.5 21.9 8.1 27.5 15 27.5C21.9 27.5 27.5 21.9 27.5 15C27.5 8.1 21.9 2.5 15 2.5ZM15.075 23.75V21.2375C15.05 21.2375 15.025 21.2375 15 21.2375C13.4 21.2375 11.8 20.625 10.575 19.4125C8.4375 17.275 8.175 13.975 9.775 11.55L11.15 12.925C10.2625 14.5875 10.4875 16.6875 11.8875 18.0875C12.7625 18.9625 13.9125 19.375 15.0625 19.35V16.675L18.6 20.2125L15.075 23.75ZM20.2125 18.45L18.8375 17.075C19.725 15.4125 19.5 13.3125 18.1 11.9125C17.2375 11.05 16.125 10.625 15 10.625C14.975 10.625 14.95 10.625 14.925 10.625V13.3125L11.3875 9.7875L14.925 6.25V8.775C16.55 8.75 18.1875 9.3375 19.425 10.5875C21.55 12.7125 21.8125 16.025 20.2125 18.45Z" fill="#E27488"/>
</svg>
