<svg width="19" height="20" viewBox="0 0 19 20" fill="none" xmlns="http://www.w3.org/2000/svg">
<path fill-rule="evenodd" clip-rule="evenodd" d="M9.70296 0.974121C4.56928 0.974121 0.40741 5.13599 0.40741 10.2697C0.40741 15.4033 4.56928 19.5652 9.70296 19.5652C14.8366 19.5652 18.9985 15.4033 18.9985 10.2697C18.9985 5.13599 14.8366 0.974121 9.70296 0.974121ZM13.7322 8.69788C13.8063 8.61307 13.8628 8.51428 13.8983 8.40732C13.9337 8.30036 13.9474 8.18739 13.9386 8.07506C13.9297 7.96273 13.8985 7.8533 13.8467 7.75322C13.795 7.65314 13.7237 7.56442 13.6371 7.49228C13.5506 7.42014 13.4504 7.36605 13.3427 7.33317C13.2349 7.3003 13.1216 7.28932 13.0095 7.30086C12.8975 7.31241 12.7888 7.34626 12.69 7.40042C12.5912 7.45457 12.5042 7.52794 12.4342 7.61621L8.80044 11.9758L6.92021 10.0947C6.76083 9.94081 6.54737 9.85564 6.3258 9.85756C6.10423 9.85949 5.89228 9.94836 5.7356 10.105C5.57892 10.2617 5.49005 10.4737 5.48812 10.6952C5.4862 10.9168 5.57138 11.1303 5.72531 11.2896L8.26046 13.8248C8.34349 13.9078 8.4429 13.9725 8.55235 14.015C8.6618 14.0574 8.77889 14.0766 8.89616 14.0713C9.01343 14.0659 9.1283 14.0362 9.23346 13.984C9.33861 13.9319 9.43174 13.8583 9.50691 13.7682L13.7322 8.69788Z" fill="#719257"/>
</svg>
