<svg width="31" height="30" viewBox="0 0 31 30" fill="none" xmlns="http://www.w3.org/2000/svg">
<path d="M11.75 21.25L15.5 17.575C15.0125 17.525 14.65 17.5 14.25 17.5C10.9125 17.5 4.25 19.175 4.25 22.5V25H15.5L11.75 21.25ZM14.25 15C17.0125 15 19.25 12.7625 19.25 10C19.25 7.2375 17.0125 5 14.25 5C11.4875 5 9.25 7.2375 9.25 10C9.25 12.7625 11.4875 15 14.25 15Z" fill="#E27488"/>
<path d="M19.8375 25.625L15.5 21.25L17.25 19.4875L19.8375 22.0875L26.25 15.625L28 17.3875L19.8375 25.625Z" fill="#E27488"/>
</svg>
