<svg width="24" height="32" viewBox="0 0 24 32" fill="none" xmlns="http://www.w3.org/2000/svg">
<path d="M4.76401 12.182C3.44335 13.226 2.58333 14.8423 2.58333 16.6662C2.58333 19.847 5.15245 22.4162 8.33333 22.4162H20.8046C20.4807 23.4734 19.492 24.2495 18.3333 24.2495H13.3333H12.5833V24.9995V28.3328V29.0828H13.3333H20C21.1587 29.0828 22.1474 29.8589 22.4713 30.9162H0.86203C1.18594 29.8589 2.17467 29.0828 3.33333 29.0828H8.33333H9.08333V28.3328V24.9995V24.2495H8.33333C4.14755 24.2495 0.75 20.8519 0.75 16.6662C0.75 13.9875 2.15101 11.6233 4.25758 10.275C4.29547 10.961 4.47407 11.6029 4.76401 12.182Z" stroke="#E27488" stroke-width="1.5"/>
<path d="M10.605 2.4449L10.2934 1.58351L12.0162 0.960384L12.3277 1.82177L12.5828 2.52705L13.2881 2.27195L14.1508 1.95989L18.2046 13.1003L17.3446 13.4114L16.6393 13.6665L16.8944 14.3718L17.206 15.2332L15.4832 15.8563L15.1716 14.9949L14.9165 14.2896L14.2112 14.5447L13.3483 14.8568L12.786 13.3129C13.5867 12.4425 14.083 11.2893 14.083 10C14.083 7.50024 12.2132 5.44953 9.80602 5.1395L9.2922 3.72649L10.1614 3.40286L10.8577 3.1436L10.605 2.4449Z" stroke="#E27488" stroke-width="1.5"/>
<path d="M10.9165 10C10.9165 10.9665 10.133 11.75 9.1665 11.75C8.20001 11.75 7.4165 10.9665 7.4165 10C7.4165 9.0335 8.20001 8.25 9.1665 8.25C10.133 8.25 10.9165 9.0335 10.9165 10Z" stroke="#E27488" stroke-width="1.5"/>
</svg>
