<svg width="25" height="35" viewBox="0 0 25 35" fill="none" xmlns="http://www.w3.org/2000/svg">
<path d="M0.750002 12.2532V12.2538C0.749357 14.1125 1.20998 15.9442 2.09305 17.5912C2.97617 19.2383 4.25569 20.6518 5.8226 21.709L6.40749 22.1036L6.04931 22.7114L1.26921 30.8239L4.02995 30.9863L4.40048 31.0081L4.60789 31.3159L6.14341 33.5947L11.7293 24.1147L11.9494 23.7411L12.3829 23.7455C12.4279 23.7459 12.4698 23.749 12.4879 23.7504L12.4919 23.7506C12.4951 23.7509 12.4978 23.7511 12.5 23.7512C12.5022 23.7511 12.5049 23.7509 12.5081 23.7506L12.5121 23.7504C12.5302 23.749 12.5721 23.7459 12.6171 23.7455L13.0506 23.7411L13.2707 24.1147L18.8438 33.5731L20.3424 31.2562L20.5534 30.9298L20.9418 30.9141L23.7178 30.8018L18.9508 22.7114L18.5929 22.104L19.177 21.7093C20.8424 20.5839 22.1812 19.0574 23.0656 17.279C23.9498 15.5007 24.3502 13.5298 24.2287 11.5567C24.1073 9.58371 23.468 7.67375 22.3715 6.01173C21.2749 4.3496 19.7578 2.99128 17.9657 2.06974C16.1735 1.14815 14.1678 0.695089 12.1431 0.755308C10.1183 0.815527 8.14461 1.38693 6.41312 2.41312C4.68172 3.43924 3.2518 4.88489 2.26035 6.60872C1.26896 8.33244 0.749111 10.2766 0.750002 12.2532ZM20.5435 6.97048C21.6089 8.53289 22.1786 10.3714 22.1786 12.2535C22.1786 14.7777 21.1551 17.1953 19.3384 18.9754C17.5222 20.7551 15.062 21.7522 12.5 21.7522C10.5891 21.7522 8.71994 21.197 7.12873 20.1552C5.53737 19.1133 4.2947 17.6309 3.56026 15.8935C2.82575 14.156 2.63332 12.2431 3.00798 10.3975C3.38262 8.55204 4.30696 6.85898 5.66164 5.53159C7.01616 4.20436 8.7401 3.30218 10.6146 2.93683C12.4891 2.57148 14.4322 2.75886 16.1989 3.47588C17.9656 4.19295 19.4782 5.40827 20.5435 6.97048Z" stroke="#E27488" stroke-width="1.5"/>
<path d="M7.89259 12.2535C7.89259 14.724 9.94081 16.7527 12.4997 16.7527C15.0587 16.7527 17.1069 14.724 17.1069 12.2535C17.1069 9.78301 15.0587 7.75433 12.4997 7.75433C9.94081 7.75433 7.89259 9.78301 7.89259 12.2535Z" stroke="#E27488" stroke-width="1.5"/>
</svg>
