<svg width="26" height="32" viewBox="0 0 26 32" fill="none" xmlns="http://www.w3.org/2000/svg">
<path d="M25.5 6.27764L13 0.722084L0.5 6.27764V14.611C0.5 22.3193 5.83333 29.5276 13 31.2776C16.1944 30.4999 19.0139 28.6388 21.1667 26.1249L16.8333 21.7915C14.1389 23.5832 10.4722 23.2776 8.09722 20.9026C5.38889 18.1943 5.38889 13.7915 8.09722 11.0832C10.8056 8.37486 15.2083 8.37486 17.9167 11.0832C20.2917 13.4582 20.5833 17.1249 18.8056 19.8193L22.8333 23.8471C24.5139 21.1249 25.5 17.9165 25.5 14.611V6.27764Z" fill="#E27488"/>
<path d="M13 20.1667C15.3012 20.1667 17.1667 18.3012 17.1667 16C17.1667 13.6988 15.3012 11.8333 13 11.8333C10.6988 11.8333 8.83334 13.6988 8.83334 16C8.83334 18.3012 10.6988 20.1667 13 20.1667Z" fill="#E27488"/>
</svg>
