<svg width="25" height="23" viewBox="0 0 25 23" fill="none" xmlns="http://www.w3.org/2000/svg">
<path d="M2.28999 0.273189L23.36 10.3502C23.573 10.4519 23.7528 10.6118 23.8787 10.8114C24.0046 11.011 24.0714 11.2422 24.0714 11.4782C24.0714 11.7142 24.0046 11.9454 23.8787 12.145C23.7528 12.3446 23.573 12.5045 23.36 12.6062L2.28999 22.6832C2.07399 22.7866 1.83282 22.8259 1.59517 22.7962C1.35751 22.7665 1.13339 22.6692 0.949454 22.5158C0.76552 22.3625 0.629521 22.1595 0.557639 21.931C0.485757 21.7026 0.481018 21.4583 0.543986 21.2272L2.65199 13.4992C2.67779 13.4045 2.7309 13.3195 2.8047 13.2547C2.8785 13.19 2.96972 13.1484 3.06699 13.1352L13.277 11.7482C13.3197 11.7421 13.36 11.7251 13.3942 11.6988C13.4284 11.6726 13.4552 11.6379 13.472 11.5982L13.49 11.5362C13.4979 11.4804 13.4867 11.4235 13.4582 11.3748C13.4297 11.3262 13.3855 11.2886 13.333 11.2682L13.278 11.2532L3.07799 9.86619C2.9809 9.85277 2.8899 9.81111 2.81629 9.7464C2.74268 9.68168 2.68972 9.59676 2.66399 9.50219L0.543986 1.73019C0.480763 1.49905 0.48531 1.25461 0.557083 1.02599C0.628857 0.797363 0.764833 0.594186 0.948816 0.440656C1.1328 0.287126 1.35703 0.189714 1.59482 0.160024C1.8326 0.130333 2.0739 0.169614 2.28999 0.273189Z" fill="white"/>
</svg>
