<svg width="35" height="25" viewBox="0 0 35 25" fill="none" xmlns="http://www.w3.org/2000/svg">
<path d="M7.89046 13.1211L7.1549 17.6304C9.09822 18.0696 11.243 19.1814 13.1651 20.4089C14.4205 21.2107 15.6026 22.0947 16.5704 22.96L7.89046 13.1211ZM7.89046 13.1211L17.1588 17.8566L17.5 18.0309L17.8412 17.8566L27.1097 13.1211L27.8451 17.6304C25.9018 18.0696 23.757 19.1814 21.8349 20.4089L21.8349 20.4089C20.5796 21.2107 19.3974 22.0947 18.4296 22.96L7.89046 13.1211ZM17.5 23.8586C17.7817 23.5604 18.0922 23.2617 18.4295 22.9601L17.5 23.8586ZM17.5 23.8586C17.2183 23.5604 16.9078 23.2617 16.5705 22.9601L17.5 23.8586ZM1.84019 6.80416L6.0247 8.94221L7.49858 9.69528L14.0336 7.64068L14.0348 7.64029L15.6314 7.14138L15.6319 7.13798L16.0842 6.99579L16.7666 6.78126L16.491 5.86579H17.5C18.0222 5.86579 18.5197 6.07793 18.8839 6.4501C19.2476 6.82172 19.4491 7.32237 19.4491 7.84107C19.4491 8.35978 19.2476 8.86043 18.8839 9.23205C18.5197 9.60422 18.0222 9.81636 17.5 9.81636L17.4983 9.81636C17.316 9.81595 17.1353 9.78962 16.9615 9.73872L11.1422 11.5568L17.5 14.8052L33.1598 6.80415L17.5 0.803183L1.84019 6.80416ZM2.15844 13.5718L1.91108 13.3998L1.66571 13.5704C1.60527 13.6124 1.55418 13.67 1.51825 13.7394C1.48232 13.8088 1.46306 13.8871 1.463 13.9673C1.46302 14.0494 1.48318 14.1294 1.52069 14.2C1.55816 14.2704 1.61129 14.3284 1.67383 14.3699L1.91138 14.5274L2.15023 14.3691C2.21274 14.3277 2.26586 14.2697 2.30334 14.1993C2.34074 14.1291 2.36092 14.0494 2.36114 13.9676C2.36092 13.8877 2.34163 13.8097 2.30577 13.7406C2.26984 13.6713 2.2188 13.6137 2.15844 13.5718ZM1.91204 15.5008C1.70814 16.4874 1.59247 17.9704 1.53091 19.4964C1.47191 20.9587 1.46416 22.4022 1.46315 23.3731C1.5951 23.4609 1.69554 23.5238 1.78049 23.5695C1.84805 23.6059 1.88644 23.6203 1.90402 23.6258C1.92231 23.6201 1.96447 23.6043 2.04118 23.5627C2.1288 23.5151 2.22976 23.4521 2.36098 23.3666C2.35993 22.3957 2.35206 20.9551 2.29315 19.4958C2.23156 17.9699 2.11589 16.4872 1.91204 15.5008ZM1.9159 23.6288C1.91592 23.6287 1.915 23.6285 1.91327 23.6283L1.9159 23.6288ZM1.89452 23.6284C1.89342 23.6285 1.89284 23.6287 1.89282 23.6287L1.89452 23.6284Z" stroke="#E27488" stroke-width="1.5"/>
</svg>
