<svg width="198" height="39" viewBox="0 0 198 39" fill="none" xmlns="http://www.w3.org/2000/svg">
<path d="M20.0783 5H16.1592C15.6069 5 15.1657 5.45002 15.1205 6.00045C14.8572 9.20176 13.3096 9.68966 12.2468 9.68966C6.42218 9.10345 8.16961 9.10345 6.42218 9.10345C4.67476 9.10345 2.34492 11.4483 1.76246 14.3793C1.17999 17.3103 2.34492 19.6552 4.67479 20.8276C7.00465 22 11.6644 20.8276 12.8293 20.8276C13.9942 20.8276 14.5767 20.8276 15.1592 21.4138C15.6252 21.8828 14.5767 22 13.9942 22C12.6352 21.6092 8.98503 21.0621 5.25725 22C0.597527 23.1724 0.254817 26.7238 0.597527 28.4483C1.18002 31.3793 4.09232 34.3103 7.00465 34.3103C9.51399 34.3103 13.9942 33.1379 14.5767 34.3103C14.9527 35.0671 14.7851 35.5587 14.6387 37.8527C14.6 38.4583 15.1157 38.9471 15.7211 38.9056C16.9723 38.8196 17.9852 38.819 19.3084 38.9107C19.8954 38.9514 20.4014 38.493 20.4014 37.9045V35.4828C20.4014 32.5517 19.4611 31.0192 18.0715 29.6207C16.9066 28.4483 14.5767 27.8621 11.6644 27.8621C8.75205 27.8621 7.5231 28.9701 7.00465 28.4483C6.4862 27.9265 6.89785 27.3833 7.00465 27.2759C8.00601 26.2681 16.3241 27.8621 17.489 27.2759L17.4891 27.2759C18.654 26.6896 19.8189 26.1034 20.4014 23.7586C20.8673 21.8828 20.9838 20.8276 20.4014 19.6552C19.5277 17.8966 17.6554 16.5147 16.9066 16.1379C15.7416 15.5517 12.7037 15.5517 10.4994 16.1379C8.736 16.6069 7.82315 16.3333 7.58715 16.1379C7.39299 15.9425 7.23767 15.4345 8.16961 14.9655C9.33454 14.3793 12.7576 14.9655 15.1592 14.9655C16.9066 14.9655 18.654 14.3793 19.8189 12.6207C20.766 11.1909 21.0909 8.00409 21.0369 5.90285C21.0236 5.38903 20.5923 5 20.0783 5Z" fill="#F3F9F9"/>
<path d="M35.1055 11.3777C34.5349 8.54441 28.258 6.46663 24.8342 5.14441C23.1223 4.57773 21.6387 5.71108 22.5517 7.97774C23.4647 10.2444 24.8342 9.67774 25.4048 9.11108C25.9755 8.54441 27.0026 7.97774 26.5461 10.2444C25.9755 13.0777 21.9811 9.67774 21.9811 10.2444C21.9811 10.8111 21.0425 15.2 21.6132 16.9C21.8034 17.4667 25.7083 16.6999 25.0369 18.0333C24.6113 18.8788 23.233 18.7782 22.2392 18.7325C21.7582 18.7104 21.4105 19.0935 21.4105 19.575V21.4381C21.4105 21.783 21.7523 22.0244 22.0877 21.9444C25.3667 21.1625 27.7597 23.2777 28.8286 23.2777C29.3992 23.2777 30.1726 22.5667 30.7432 21.4333C31.1858 20.5542 31.8844 21.4333 31.6817 22.1444C31.5574 22.5806 30.1726 23.7 29.3992 24.9777C29.0313 25.9667 29.1347 27.1 27.8901 28.2333C26.5442 29.4588 26.1657 28.1889 26.5461 27.8111C27.6874 26.6777 29.171 24.1844 25.9755 23.2777C22.78 22.3711 21.6007 23.6555 21.4105 24.4111C20.8399 26.6777 21.007 29.677 21.4105 30.0777C21.9811 30.6444 23.1224 30.6444 23.693 30.6444C24.2636 30.6444 24.4663 30.5 24.8342 30.6444C25.5847 30.939 25.8102 32.0067 25.0369 32.2C24.5469 32.3225 23.7753 32.3436 22.7467 32.1368C22.0784 32.0024 21.408 32.4852 21.4833 33.1628C22.2522 40.0834 28.8619 38.5447 29.3993 38.0111C29.8558 37.5577 29.5895 36.6889 29.3993 36.3111C29.0188 35.5555 28.9108 35.0333 27.8901 35.0333C27.3194 35.0333 25.0369 35.6 25.6076 34.4667C26.1782 33.9 27.6874 34.3224 28.4607 33.9C29.234 33.4776 29.0313 33.3333 30.5405 32.3444C31.2141 31.903 32.2015 32.6772 31.6818 32.9111C30.7432 33.3333 29.6019 33.9 30.1726 35.0333C33.5963 41.8333 39.0999 34.0444 39.0999 32.3444C39.0999 30.6444 37.388 30.6444 36.8174 30.0777C36.3609 29.6244 36.2468 29.1333 36.2468 28.9444C36.2468 28.7555 36.3609 28.3777 36.8174 28.3777C37.388 28.3777 37.388 28.9444 38.5293 28.3777C43.0943 23.2777 38.5293 18.7444 36.8174 18.7444C35.1055 18.7444 34.1367 20.8893 33.3936 19.8777C32.6258 18.8324 35.024 17.8539 37.1716 17.636C37.8427 17.5679 38.3844 16.94 38.178 16.2977C37.7128 14.8495 36.9597 13.5192 35.8788 14.6333C34.3696 16.1889 33.5963 16.3333 32.4551 16.3333C30.8416 16.3333 30.6361 16.0258 29.9699 16.0258C29.3243 16.0258 28.4607 16.3333 27.8901 16.3333C27.3194 16.3333 26.7488 15.2 27.3194 15.2C27.6 15.2 27.8775 15.1892 28.1324 15.2008C28.5601 15.2201 29.0432 15.1491 29.3044 14.8099C29.8921 14.0468 30.1726 13.1714 30.1726 11.8C30.1726 11.3781 31.0082 11.4423 31.1111 11.9444C31.2277 12.5129 31.1473 13.2393 30.9857 13.9335C30.8251 14.6236 31.32 15.3488 32.0188 15.2325C35.5809 14.6396 35.2053 11.8733 35.1055 11.3777Z" fill="#F3F9F9"/>
<path d="M52.68 10.3V13.8H57.38V16.02H52.68V19.72H57.98V22H49.88V8.02H57.98V10.3H52.68ZM64.7645 22.18C63.8579 22.18 63.0445 22.02 62.3245 21.7C61.6045 21.3667 61.0312 20.92 60.6045 20.36C60.1912 19.8 59.9645 19.18 59.9245 18.5H62.7445C62.7979 18.9267 63.0045 19.28 63.3645 19.56C63.7379 19.84 64.1979 19.98 64.7445 19.98C65.2779 19.98 65.6912 19.8733 65.9845 19.66C66.2912 19.4467 66.4445 19.1733 66.4445 18.84C66.4445 18.48 66.2579 18.2133 65.8845 18.04C65.5245 17.8533 64.9445 17.6533 64.1445 17.44C63.3179 17.24 62.6379 17.0333 62.1045 16.82C61.5845 16.6067 61.1312 16.28 60.7445 15.84C60.3712 15.4 60.1845 14.8067 60.1845 14.06C60.1845 13.4467 60.3579 12.8867 60.7045 12.38C61.0645 11.8733 61.5712 11.4733 62.2245 11.18C62.8912 10.8867 63.6712 10.74 64.5645 10.74C65.8845 10.74 66.9379 11.0733 67.7245 11.74C68.5112 12.3933 68.9445 13.28 69.0245 14.4H66.3445C66.3045 13.96 66.1179 13.6133 65.7845 13.36C65.4645 13.0933 65.0312 12.96 64.4845 12.96C63.9779 12.96 63.5845 13.0533 63.3045 13.24C63.0379 13.4267 62.9045 13.6867 62.9045 14.02C62.9045 14.3933 63.0912 14.68 63.4645 14.88C63.8379 15.0667 64.4179 15.26 65.2045 15.46C66.0045 15.66 66.6645 15.8667 67.1845 16.08C67.7045 16.2933 68.1512 16.6267 68.5245 17.08C68.9112 17.52 69.1112 18.1067 69.1245 18.84C69.1245 19.48 68.9445 20.0533 68.5845 20.56C68.2379 21.0667 67.7312 21.4667 67.0645 21.76C66.4112 22.04 65.6445 22.18 64.7645 22.18ZM74.683 13.22V18.58C74.683 18.9533 74.7696 19.2267 74.943 19.4C75.1296 19.56 75.4363 19.64 75.863 19.64H77.163V22H75.403C73.043 22 71.863 20.8533 71.863 18.56V13.22H70.543V10.92H71.863V8.18H74.683V10.92H77.163V13.22H74.683ZM85.4169 10.76C86.2569 10.76 87.0035 10.9467 87.6569 11.32C88.3102 11.68 88.8169 12.22 89.1769 12.94C89.5502 13.6467 89.7369 14.5 89.7369 15.5V22H86.9369V15.88C86.9369 15 86.7169 14.3267 86.2769 13.86C85.8369 13.38 85.2369 13.14 84.4769 13.14C83.7035 13.14 83.0902 13.38 82.6369 13.86C82.1969 14.3267 81.9769 15 81.9769 15.88V22H79.1769V7.2H81.9769V12.3C82.3369 11.82 82.8169 11.4467 83.4169 11.18C84.0169 10.9 84.6835 10.76 85.4169 10.76ZM102.7 16.22C102.7 16.62 102.673 16.98 102.62 17.3H94.5195C94.5862 18.1 94.8662 18.7267 95.3595 19.18C95.8529 19.6333 96.4595 19.86 97.1795 19.86C98.2195 19.86 98.9595 19.4133 99.3995 18.52H102.42C102.1 19.5867 101.486 20.4667 100.58 21.16C99.6729 21.84 98.5595 22.18 97.2395 22.18C96.1729 22.18 95.2129 21.9467 94.3595 21.48C93.5195 21 92.8595 20.3267 92.3795 19.46C91.9129 18.5933 91.6795 17.5933 91.6795 16.46C91.6795 15.3133 91.9129 14.3067 92.3795 13.44C92.8462 12.5733 93.4995 11.9067 94.3395 11.44C95.1795 10.9733 96.1462 10.74 97.2395 10.74C98.2929 10.74 99.2329 10.9667 100.06 11.42C100.9 11.8733 101.546 12.52 102 13.36C102.466 14.1867 102.7 15.14 102.7 16.22ZM99.7995 15.42C99.7862 14.7 99.5262 14.1267 99.0195 13.7C98.5129 13.26 97.8929 13.04 97.1595 13.04C96.4662 13.04 95.8795 13.2533 95.3995 13.68C94.9329 14.0933 94.6462 14.6733 94.5395 15.42H99.7995ZM107.543 12.64C107.903 12.0533 108.37 11.5933 108.943 11.26C109.53 10.9267 110.197 10.76 110.943 10.76V13.7H110.203C109.323 13.7 108.657 13.9067 108.203 14.32C107.763 14.7333 107.543 15.4533 107.543 16.48V22H104.743V10.92H107.543V12.64ZM120.455 19.64H126.735V22H117.215V19.84L123.455 10.4H117.215V8.04H126.735V10.2L120.455 19.64ZM128.398 16.42C128.398 15.3 128.618 14.3067 129.058 13.44C129.512 12.5733 130.118 11.9067 130.878 11.44C131.652 10.9733 132.512 10.74 133.458 10.74C134.285 10.74 135.005 10.9067 135.618 11.24C136.245 11.5733 136.745 11.9933 137.118 12.5V10.92H139.938V22H137.118V20.38C136.758 20.9 136.258 21.3333 135.618 21.68C134.992 22.0133 134.265 22.18 133.438 22.18C132.505 22.18 131.652 21.94 130.878 21.46C130.118 20.98 129.512 20.3067 129.058 19.44C128.618 18.56 128.398 17.5533 128.398 16.42ZM137.118 16.46C137.118 15.78 136.985 15.2 136.718 14.72C136.452 14.2267 136.092 13.8533 135.638 13.6C135.185 13.3333 134.698 13.2 134.178 13.2C133.658 13.2 133.178 13.3267 132.738 13.58C132.298 13.8333 131.938 14.2067 131.658 14.7C131.392 15.18 131.258 15.7533 131.258 16.42C131.258 17.0867 131.392 17.6733 131.658 18.18C131.938 18.6733 132.298 19.0533 132.738 19.32C133.192 19.5867 133.672 19.72 134.178 19.72C134.698 19.72 135.185 19.5933 135.638 19.34C136.092 19.0733 136.452 18.7 136.718 18.22C136.985 17.7267 137.118 17.14 137.118 16.46ZM156.433 10.76C157.793 10.76 158.886 11.18 159.713 12.02C160.553 12.8467 160.973 14.0067 160.973 15.5V22H158.173V15.88C158.173 15.0133 157.953 14.3533 157.513 13.9C157.073 13.4333 156.473 13.2 155.713 13.2C154.953 13.2 154.346 13.4333 153.893 13.9C153.453 14.3533 153.233 15.0133 153.233 15.88V22H150.433V15.88C150.433 15.0133 150.213 14.3533 149.773 13.9C149.333 13.4333 148.733 13.2 147.973 13.2C147.2 13.2 146.586 13.4333 146.133 13.9C145.693 14.3533 145.473 15.0133 145.473 15.88V22H142.673V10.92H145.473V12.26C145.833 11.7933 146.293 11.4267 146.853 11.16C147.426 10.8933 148.053 10.76 148.733 10.76C149.6 10.76 150.373 10.9467 151.053 11.32C151.733 11.68 152.26 12.2 152.633 12.88C152.993 12.24 153.513 11.7267 154.193 11.34C154.886 10.9533 155.633 10.76 156.433 10.76ZM168.55 22.18C167.483 22.18 166.523 21.9467 165.67 21.48C164.817 21 164.143 20.3267 163.65 19.46C163.17 18.5933 162.93 17.5933 162.93 16.46C162.93 15.3267 163.177 14.3267 163.67 13.46C164.177 12.5933 164.863 11.9267 165.73 11.46C166.597 10.98 167.563 10.74 168.63 10.74C169.697 10.74 170.663 10.98 171.53 11.46C172.397 11.9267 173.077 12.5933 173.57 13.46C174.077 14.3267 174.33 15.3267 174.33 16.46C174.33 17.5933 174.07 18.5933 173.55 19.46C173.043 20.3267 172.35 21 171.47 21.48C170.603 21.9467 169.63 22.18 168.55 22.18ZM168.55 19.74C169.057 19.74 169.53 19.62 169.97 19.38C170.423 19.1267 170.783 18.7533 171.05 18.26C171.317 17.7667 171.45 17.1667 171.45 16.46C171.45 15.4067 171.17 14.6 170.61 14.04C170.063 13.4667 169.39 13.18 168.59 13.18C167.79 13.18 167.117 13.4667 166.57 14.04C166.037 14.6 165.77 15.4067 165.77 16.46C165.77 17.5133 166.03 18.3267 166.55 18.9C167.083 19.46 167.75 19.74 168.55 19.74ZM179.184 12.64C179.544 12.0533 180.011 11.5933 180.584 11.26C181.171 10.9267 181.837 10.76 182.584 10.76V13.7H181.844C180.964 13.7 180.297 13.9067 179.844 14.32C179.404 14.7333 179.184 15.4533 179.184 16.48V22H176.384V10.92H179.184V12.64ZM183.75 16.42C183.75 15.3 183.97 14.3067 184.41 13.44C184.863 12.5733 185.47 11.9067 186.23 11.44C187.003 10.9733 187.863 10.74 188.81 10.74C189.637 10.74 190.357 10.9067 190.97 11.24C191.597 11.5733 192.097 11.9933 192.47 12.5V10.92H195.29V22H192.47V20.38C192.11 20.9 191.61 21.3333 190.97 21.68C190.343 22.0133 189.617 22.18 188.79 22.18C187.857 22.18 187.003 21.94 186.23 21.46C185.47 20.98 184.863 20.3067 184.41 19.44C183.97 18.56 183.75 17.5533 183.75 16.42ZM192.47 16.46C192.47 15.78 192.337 15.2 192.07 14.72C191.803 14.2267 191.443 13.8533 190.99 13.6C190.537 13.3333 190.05 13.2 189.53 13.2C189.01 13.2 188.53 13.3267 188.09 13.58C187.65 13.8333 187.29 14.2067 187.01 14.7C186.743 15.18 186.61 15.7533 186.61 16.42C186.61 17.0867 186.743 17.6733 187.01 18.18C187.29 18.6733 187.65 19.0533 188.09 19.32C188.543 19.5867 189.023 19.72 189.53 19.72C190.05 19.72 190.537 19.5933 190.99 19.34C191.443 19.0733 191.803 18.7 192.07 18.22C192.337 17.7267 192.47 17.14 192.47 16.46Z" fill="#F3F9F9"/>
<path d="M55.96 35H54.82L51.39 29.81V35H50.25V28.04H51.39L54.82 33.22V28.04H55.96V35ZM64.587 28.05V32.48C64.587 33.0067 64.7237 33.4033 64.997 33.67C65.277 33.9367 65.6637 34.07 66.157 34.07C66.657 34.07 67.0437 33.9367 67.317 33.67C67.597 33.4033 67.737 33.0067 67.737 32.48V28.05H68.877V32.46C68.877 33.0267 68.7537 33.5067 68.507 33.9C68.2604 34.2933 67.9304 34.5867 67.517 34.78C67.1037 34.9733 66.647 35.07 66.147 35.07C65.647 35.07 65.1904 34.9733 64.777 34.78C64.3704 34.5867 64.047 34.2933 63.807 33.9C63.567 33.5067 63.447 33.0267 63.447 32.46V28.05H64.587ZM80.8513 28.05V28.98H79.0013V35H77.8613V28.98H76.0013V28.05H80.8513ZM91.6159 35L90.0159 32.22H89.1459V35H88.0059V28.05H90.4059C90.9392 28.05 91.3892 28.1433 91.7559 28.33C92.1292 28.5167 92.4059 28.7667 92.5859 29.08C92.7725 29.3933 92.8659 29.7433 92.8659 30.13C92.8659 30.5833 92.7325 30.9967 92.4659 31.37C92.2059 31.7367 91.8025 31.9867 91.2559 32.12L92.9759 35H91.6159ZM89.1459 31.31H90.4059C90.8325 31.31 91.1525 31.2033 91.3659 30.99C91.5859 30.7767 91.6959 30.49 91.6959 30.13C91.6959 29.77 91.5892 29.49 91.3759 29.29C91.1625 29.0833 90.8392 28.98 90.4059 28.98H89.1459V31.31ZM101.464 28.05V35H100.324V28.05H101.464ZM108.581 31.51C108.581 30.83 108.738 30.22 109.051 29.68C109.371 29.14 109.801 28.72 110.341 28.42C110.888 28.1133 111.484 27.96 112.131 27.96C112.871 27.96 113.528 28.1433 114.101 28.51C114.681 28.87 115.101 29.3833 115.361 30.05H113.991C113.811 29.6833 113.561 29.41 113.241 29.23C112.921 29.05 112.551 28.96 112.131 28.96C111.671 28.96 111.261 29.0633 110.901 29.27C110.541 29.4767 110.258 29.7733 110.051 30.16C109.851 30.5467 109.751 30.9967 109.751 31.51C109.751 32.0233 109.851 32.4733 110.051 32.86C110.258 33.2467 110.541 33.5467 110.901 33.76C111.261 33.9667 111.671 34.07 112.131 34.07C112.551 34.07 112.921 33.98 113.241 33.8C113.561 33.62 113.811 33.3467 113.991 32.98H115.361C115.101 33.6467 114.681 34.16 114.101 34.52C113.528 34.88 112.871 35.06 112.131 35.06C111.478 35.06 110.881 34.91 110.341 34.61C109.801 34.3033 109.371 33.88 109.051 33.34C108.738 32.8 108.581 32.19 108.581 31.51ZM123.835 28.05V35H122.695V28.05H123.835ZM134.502 35.07C133.855 35.07 133.259 34.92 132.712 34.62C132.172 34.3133 131.742 33.89 131.422 33.35C131.109 32.8033 130.952 32.19 130.952 31.51C130.952 30.83 131.109 30.22 131.422 29.68C131.742 29.14 132.172 28.72 132.712 28.42C133.259 28.1133 133.855 27.96 134.502 27.96C135.155 27.96 135.752 28.1133 136.292 28.42C136.839 28.72 137.269 29.14 137.582 29.68C137.895 30.22 138.052 30.83 138.052 31.51C138.052 32.19 137.895 32.8033 137.582 33.35C137.269 33.89 136.839 34.3133 136.292 34.62C135.752 34.92 135.155 35.07 134.502 35.07ZM134.502 34.08C134.962 34.08 135.372 33.9767 135.732 33.77C136.092 33.5567 136.372 33.2567 136.572 32.87C136.779 32.4767 136.882 32.0233 136.882 31.51C136.882 30.9967 136.779 30.5467 136.572 30.16C136.372 29.7733 136.092 29.4767 135.732 29.27C135.372 29.0633 134.962 28.96 134.502 28.96C134.042 28.96 133.632 29.0633 133.272 29.27C132.912 29.4767 132.629 29.7733 132.422 30.16C132.222 30.5467 132.122 30.9967 132.122 31.51C132.122 32.0233 132.222 32.4767 132.422 32.87C132.629 33.2567 132.912 33.5567 133.272 33.77C133.632 33.9767 134.042 34.08 134.502 34.08ZM150.884 35H149.744L146.314 29.81V35H145.174V28.04H146.314L149.744 33.22V28.04H150.884V35ZM159.521 28.05V35H158.381V28.05H159.521ZM169.308 35.07C168.841 35.07 168.421 34.99 168.048 34.83C167.674 34.6633 167.381 34.43 167.168 34.13C166.954 33.83 166.848 33.48 166.848 33.08H168.068C168.094 33.38 168.211 33.6267 168.418 33.82C168.631 34.0133 168.928 34.11 169.308 34.11C169.701 34.11 170.008 34.0167 170.228 33.83C170.448 33.6367 170.558 33.39 170.558 33.09C170.558 32.8567 170.488 32.6667 170.348 32.52C170.214 32.3733 170.044 32.26 169.838 32.18C169.638 32.1 169.358 32.0133 168.998 31.92C168.544 31.8 168.174 31.68 167.888 31.56C167.608 31.4333 167.368 31.24 167.168 30.98C166.968 30.72 166.868 30.3733 166.868 29.94C166.868 29.54 166.968 29.19 167.168 28.89C167.368 28.59 167.648 28.36 168.008 28.2C168.368 28.04 168.784 27.96 169.258 27.96C169.931 27.96 170.481 28.13 170.908 28.47C171.341 28.8033 171.581 29.2633 171.628 29.85H170.368C170.348 29.5967 170.228 29.38 170.008 29.2C169.788 29.02 169.498 28.93 169.138 28.93C168.811 28.93 168.544 29.0133 168.338 29.18C168.131 29.3467 168.028 29.5867 168.028 29.9C168.028 30.1133 168.091 30.29 168.218 30.43C168.351 30.5633 168.518 30.67 168.718 30.75C168.918 30.83 169.191 30.9167 169.538 31.01C169.998 31.1367 170.371 31.2633 170.658 31.39C170.951 31.5167 171.198 31.7133 171.398 31.98C171.604 32.24 171.708 32.59 171.708 33.03C171.708 33.3833 171.611 33.7167 171.418 34.03C171.231 34.3433 170.954 34.5967 170.588 34.79C170.228 34.9767 169.801 35.07 169.308 35.07ZM183.543 28.05V28.98H181.693V35H180.553V28.98H178.693V28.05H183.543ZM194.887 33.58H191.977L191.477 35H190.287L192.777 28.04H194.097L196.587 35H195.387L194.887 33.58ZM194.567 32.65L193.437 29.42L192.297 32.65H194.567Z" fill="#F3F9F9"/>
</svg>
