<svg width="197" height="40" viewBox="0 0 197 40" fill="none" xmlns="http://www.w3.org/2000/svg">
<rect width="197" height="40" fill="#E1E1E1"/>
<g clip-path="url(#clip0_2_3)">
<rect width="1440" height="7680" transform="translate(-119 -48)" fill="white"/>
<path d="M19.5783 5.5H15.6592C15.1069 5.5 14.6657 5.95002 14.6205 6.50045C14.3572 9.70176 12.8096 10.1897 11.7468 10.1897C5.92218 9.60345 7.66961 9.60345 5.92218 9.60345C4.17476 9.60345 1.84492 11.9483 1.26246 14.8793C0.679993 17.8103 1.84492 20.1552 4.17479 21.3276C6.50465 22.5 11.1644 21.3276 12.3293 21.3276C13.4942 21.3276 14.0767 21.3276 14.6592 21.9138C15.1252 22.3828 14.0767 22.5 13.4942 22.5C12.1352 22.1092 8.48503 21.5621 4.75725 22.5C0.0975273 23.6724 -0.245183 27.2238 0.097527 28.9483C0.680024 31.8793 3.59232 34.8103 6.50465 34.8103C9.01399 34.8103 13.4942 33.6379 14.0767 34.8103C14.4527 35.5671 14.2851 36.0587 14.1387 38.3527C14.1 38.9583 14.6157 39.4471 15.2211 39.4056C16.4723 39.3196 17.4852 39.319 18.8084 39.4107C19.3954 39.4514 19.9014 38.993 19.9014 38.4045V35.9828C19.9014 33.0517 18.9611 31.5192 17.5715 30.1207C16.4066 28.9483 14.0767 28.3621 11.1644 28.3621C8.25205 28.3621 7.0231 29.4701 6.50465 28.9483C5.9862 28.4265 6.39785 27.8833 6.50465 27.7759C7.50601 26.7681 15.8241 28.3621 16.989 27.7759L16.9891 27.7759C18.154 27.1896 19.3189 26.6034 19.9014 24.2586C20.3673 22.3828 20.4838 21.3276 19.9014 20.1552C19.0277 18.3966 17.1554 17.0147 16.4066 16.6379C15.2416 16.0517 12.2037 16.0517 9.99944 16.6379C8.236 17.1069 7.32315 16.8333 7.08715 16.6379C6.89299 16.4425 6.73767 15.9345 7.66961 15.4655C8.83454 14.8793 12.2576 15.4655 14.6592 15.4655C16.4066 15.4655 18.154 14.8793 19.3189 13.1207C20.266 11.6909 20.5909 8.50409 20.5369 6.40285C20.5236 5.88903 20.0923 5.5 19.5783 5.5Z" fill="#E27488"/>
<path d="M34.6055 11.8777C34.0349 9.04441 27.758 6.96663 24.3342 5.64441C22.6223 5.07773 21.1387 6.21108 22.0517 8.47774C22.9647 10.7444 24.3342 10.1777 24.9048 9.61108C25.4755 9.04441 26.5026 8.47774 26.0461 10.7444C25.4755 13.5777 21.4811 10.1777 21.4811 10.7444C21.4811 11.3111 20.5425 15.7 21.1132 17.4C21.3034 17.9667 25.2083 17.1999 24.5369 18.5333C24.1113 19.3788 22.733 19.2782 21.7392 19.2325C21.2582 19.2104 20.9105 19.5935 20.9105 20.075V21.9381C20.9105 22.283 21.2523 22.5244 21.5877 22.4444C24.8667 21.6625 27.2597 23.7777 28.3286 23.7777C28.8992 23.7777 29.6726 23.0667 30.2432 21.9333C30.6858 21.0542 31.3844 21.9333 31.1817 22.6444C31.0574 23.0806 29.6726 24.2 28.8992 25.4777C28.5313 26.4667 28.6347 27.6 27.3901 28.7333C26.0442 29.9588 25.6657 28.6889 26.0461 28.3111C27.1874 27.1777 28.671 24.6844 25.4755 23.7777C22.28 22.8711 21.1007 24.1555 20.9105 24.9111C20.3399 27.1777 20.507 30.177 20.9105 30.5777C21.4811 31.1444 22.6224 31.1444 23.193 31.1444C23.7636 31.1444 23.9663 31 24.3342 31.1444C25.0847 31.439 25.3102 32.5067 24.5369 32.7C24.0469 32.8225 23.2753 32.8436 22.2467 32.6368C21.5784 32.5024 20.908 32.9852 20.9833 33.6628C21.7522 40.5834 28.3619 39.0447 28.8993 38.5111C29.3558 38.0577 29.0895 37.1889 28.8993 36.8111C28.5188 36.0555 28.4108 35.5333 27.3901 35.5333C26.8194 35.5333 24.5369 36.1 25.1076 34.9667C25.6782 34.4 27.1874 34.8224 27.9607 34.4C28.734 33.9776 28.5313 33.8333 30.0405 32.8444C30.7141 32.403 31.7015 33.1772 31.1818 33.4111C30.2432 33.8333 29.1019 34.4 29.6726 35.5333C33.0963 42.3333 38.5999 34.5444 38.5999 32.8444C38.5999 31.1444 36.888 31.1444 36.3174 30.5777C35.8609 30.1244 35.7468 29.6333 35.7468 29.4444C35.7468 29.2555 35.8609 28.8777 36.3174 28.8777C36.888 28.8777 36.888 29.4444 38.0293 28.8777C42.5943 23.7777 38.0293 19.2444 36.3174 19.2444C34.6055 19.2444 33.6367 21.3893 32.8936 20.3777C32.1258 19.3324 34.524 18.3539 36.6716 18.136C37.3427 18.0679 37.8844 17.44 37.678 16.7977C37.2128 15.3495 36.4597 14.0192 35.3788 15.1333C33.8696 16.6889 33.0963 16.8333 31.9551 16.8333C30.3416 16.8333 30.1361 16.5258 29.4699 16.5258C28.8243 16.5258 27.9607 16.8333 27.3901 16.8333C26.8194 16.8333 26.2488 15.7 26.8194 15.7C27.1 15.7 27.3775 15.6892 27.6324 15.7008C28.0601 15.7201 28.5432 15.6491 28.8044 15.3099C29.3921 14.5468 29.6726 13.6714 29.6726 12.3C29.6726 11.8781 30.5082 11.9423 30.6111 12.4444C30.7277 13.0129 30.6473 13.7393 30.4857 14.4335C30.3251 15.1236 30.82 15.8488 31.5188 15.7325C35.0809 15.1396 34.7053 12.3733 34.6055 11.8777Z" fill="#719257"/>
<path d="M52.18 10.8V14.3H56.88V16.52H52.18V20.22H57.48V22.5H49.38V8.52H57.48V10.8H52.18ZM64.2645 22.68C63.3579 22.68 62.5445 22.52 61.8245 22.2C61.1045 21.8667 60.5312 21.42 60.1045 20.86C59.6912 20.3 59.4645 19.68 59.4245 19H62.2445C62.2979 19.4267 62.5045 19.78 62.8645 20.06C63.2379 20.34 63.6979 20.48 64.2445 20.48C64.7779 20.48 65.1912 20.3733 65.4845 20.16C65.7912 19.9467 65.9445 19.6733 65.9445 19.34C65.9445 18.98 65.7579 18.7133 65.3845 18.54C65.0245 18.3533 64.4445 18.1533 63.6445 17.94C62.8179 17.74 62.1379 17.5333 61.6045 17.32C61.0845 17.1067 60.6312 16.78 60.2445 16.34C59.8712 15.9 59.6845 15.3067 59.6845 14.56C59.6845 13.9467 59.8579 13.3867 60.2045 12.88C60.5645 12.3733 61.0712 11.9733 61.7245 11.68C62.3912 11.3867 63.1712 11.24 64.0645 11.24C65.3845 11.24 66.4379 11.5733 67.2245 12.24C68.0112 12.8933 68.4445 13.78 68.5245 14.9H65.8445C65.8045 14.46 65.6179 14.1133 65.2845 13.86C64.9645 13.5933 64.5312 13.46 63.9845 13.46C63.4779 13.46 63.0845 13.5533 62.8045 13.74C62.5379 13.9267 62.4045 14.1867 62.4045 14.52C62.4045 14.8933 62.5912 15.18 62.9645 15.38C63.3379 15.5667 63.9179 15.76 64.7045 15.96C65.5045 16.16 66.1645 16.3667 66.6845 16.58C67.2045 16.7933 67.6512 17.1267 68.0245 17.58C68.4112 18.02 68.6112 18.6067 68.6245 19.34C68.6245 19.98 68.4445 20.5533 68.0845 21.06C67.7379 21.5667 67.2312 21.9667 66.5645 22.26C65.9112 22.54 65.1445 22.68 64.2645 22.68ZM74.183 13.72V19.08C74.183 19.4533 74.2696 19.7267 74.443 19.9C74.6296 20.06 74.9363 20.14 75.363 20.14H76.663V22.5H74.903C72.543 22.5 71.363 21.3533 71.363 19.06V13.72H70.043V11.42H71.363V8.68H74.183V11.42H76.663V13.72H74.183ZM84.9169 11.26C85.7569 11.26 86.5035 11.4467 87.1569 11.82C87.8102 12.18 88.3169 12.72 88.6769 13.44C89.0502 14.1467 89.2369 15 89.2369 16V22.5H86.4369V16.38C86.4369 15.5 86.2169 14.8267 85.7769 14.36C85.3369 13.88 84.7369 13.64 83.9769 13.64C83.2035 13.64 82.5902 13.88 82.1369 14.36C81.6969 14.8267 81.4769 15.5 81.4769 16.38V22.5H78.6769V7.7H81.4769V12.8C81.8369 12.32 82.3169 11.9467 82.9169 11.68C83.5169 11.4 84.1835 11.26 84.9169 11.26ZM102.2 16.72C102.2 17.12 102.173 17.48 102.12 17.8H94.0195C94.0862 18.6 94.3662 19.2267 94.8595 19.68C95.3529 20.1333 95.9595 20.36 96.6795 20.36C97.7195 20.36 98.4595 19.9133 98.8995 19.02H101.92C101.6 20.0867 100.986 20.9667 100.08 21.66C99.1729 22.34 98.0595 22.68 96.7395 22.68C95.6729 22.68 94.7129 22.4467 93.8595 21.98C93.0195 21.5 92.3595 20.8267 91.8795 19.96C91.4129 19.0933 91.1795 18.0933 91.1795 16.96C91.1795 15.8133 91.4129 14.8067 91.8795 13.94C92.3462 13.0733 92.9995 12.4067 93.8395 11.94C94.6795 11.4733 95.6462 11.24 96.7395 11.24C97.7929 11.24 98.7329 11.4667 99.5595 11.92C100.4 12.3733 101.046 13.02 101.5 13.86C101.966 14.6867 102.2 15.64 102.2 16.72ZM99.2995 15.92C99.2862 15.2 99.0262 14.6267 98.5195 14.2C98.0129 13.76 97.3929 13.54 96.6595 13.54C95.9662 13.54 95.3795 13.7533 94.8995 14.18C94.4329 14.5933 94.1462 15.1733 94.0395 15.92H99.2995ZM107.043 13.14C107.403 12.5533 107.87 12.0933 108.443 11.76C109.03 11.4267 109.697 11.26 110.443 11.26V14.2H109.703C108.823 14.2 108.157 14.4067 107.703 14.82C107.263 15.2333 107.043 15.9533 107.043 16.98V22.5H104.243V11.42H107.043V13.14ZM119.955 20.14H126.235V22.5H116.715V20.34L122.955 10.9H116.715V8.54H126.235V10.7L119.955 20.14ZM127.898 16.92C127.898 15.8 128.118 14.8067 128.558 13.94C129.012 13.0733 129.618 12.4067 130.378 11.94C131.152 11.4733 132.012 11.24 132.958 11.24C133.785 11.24 134.505 11.4067 135.118 11.74C135.745 12.0733 136.245 12.4933 136.618 13V11.42H139.438V22.5H136.618V20.88C136.258 21.4 135.758 21.8333 135.118 22.18C134.492 22.5133 133.765 22.68 132.938 22.68C132.005 22.68 131.152 22.44 130.378 21.96C129.618 21.48 129.012 20.8067 128.558 19.94C128.118 19.06 127.898 18.0533 127.898 16.92ZM136.618 16.96C136.618 16.28 136.485 15.7 136.218 15.22C135.952 14.7267 135.592 14.3533 135.138 14.1C134.685 13.8333 134.198 13.7 133.678 13.7C133.158 13.7 132.678 13.8267 132.238 14.08C131.798 14.3333 131.438 14.7067 131.158 15.2C130.892 15.68 130.758 16.2533 130.758 16.92C130.758 17.5867 130.892 18.1733 131.158 18.68C131.438 19.1733 131.798 19.5533 132.238 19.82C132.692 20.0867 133.172 20.22 133.678 20.22C134.198 20.22 134.685 20.0933 135.138 19.84C135.592 19.5733 135.952 19.2 136.218 18.72C136.485 18.2267 136.618 17.64 136.618 16.96ZM155.933 11.26C157.293 11.26 158.386 11.68 159.213 12.52C160.053 13.3467 160.473 14.5067 160.473 16V22.5H157.673V16.38C157.673 15.5133 157.453 14.8533 157.013 14.4C156.573 13.9333 155.973 13.7 155.213 13.7C154.453 13.7 153.846 13.9333 153.393 14.4C152.953 14.8533 152.733 15.5133 152.733 16.38V22.5H149.933V16.38C149.933 15.5133 149.713 14.8533 149.273 14.4C148.833 13.9333 148.233 13.7 147.473 13.7C146.7 13.7 146.086 13.9333 145.633 14.4C145.193 14.8533 144.973 15.5133 144.973 16.38V22.5H142.173V11.42H144.973V12.76C145.333 12.2933 145.793 11.9267 146.353 11.66C146.926 11.3933 147.553 11.26 148.233 11.26C149.1 11.26 149.873 11.4467 150.553 11.82C151.233 12.18 151.76 12.7 152.133 13.38C152.493 12.74 153.013 12.2267 153.693 11.84C154.386 11.4533 155.133 11.26 155.933 11.26ZM168.05 22.68C166.983 22.68 166.023 22.4467 165.17 21.98C164.317 21.5 163.643 20.8267 163.15 19.96C162.67 19.0933 162.43 18.0933 162.43 16.96C162.43 15.8267 162.677 14.8267 163.17 13.96C163.677 13.0933 164.363 12.4267 165.23 11.96C166.097 11.48 167.063 11.24 168.13 11.24C169.197 11.24 170.163 11.48 171.03 11.96C171.897 12.4267 172.577 13.0933 173.07 13.96C173.577 14.8267 173.83 15.8267 173.83 16.96C173.83 18.0933 173.57 19.0933 173.05 19.96C172.543 20.8267 171.85 21.5 170.97 21.98C170.103 22.4467 169.13 22.68 168.05 22.68ZM168.05 20.24C168.557 20.24 169.03 20.12 169.47 19.88C169.923 19.6267 170.283 19.2533 170.55 18.76C170.817 18.2667 170.95 17.6667 170.95 16.96C170.95 15.9067 170.67 15.1 170.11 14.54C169.563 13.9667 168.89 13.68 168.09 13.68C167.29 13.68 166.617 13.9667 166.07 14.54C165.537 15.1 165.27 15.9067 165.27 16.96C165.27 18.0133 165.53 18.8267 166.05 19.4C166.583 19.96 167.25 20.24 168.05 20.24ZM178.684 13.14C179.044 12.5533 179.511 12.0933 180.084 11.76C180.671 11.4267 181.337 11.26 182.084 11.26V14.2H181.344C180.464 14.2 179.797 14.4067 179.344 14.82C178.904 15.2333 178.684 15.9533 178.684 16.98V22.5H175.884V11.42H178.684V13.14ZM183.25 16.92C183.25 15.8 183.47 14.8067 183.91 13.94C184.363 13.0733 184.97 12.4067 185.73 11.94C186.503 11.4733 187.363 11.24 188.31 11.24C189.137 11.24 189.857 11.4067 190.47 11.74C191.097 12.0733 191.597 12.4933 191.97 13V11.42H194.79V22.5H191.97V20.88C191.61 21.4 191.11 21.8333 190.47 22.18C189.843 22.5133 189.117 22.68 188.29 22.68C187.357 22.68 186.503 22.44 185.73 21.96C184.97 21.48 184.363 20.8067 183.91 19.94C183.47 19.06 183.25 18.0533 183.25 16.92ZM191.97 16.96C191.97 16.28 191.837 15.7 191.57 15.22C191.303 14.7267 190.943 14.3533 190.49 14.1C190.037 13.8333 189.55 13.7 189.03 13.7C188.51 13.7 188.03 13.8267 187.59 14.08C187.15 14.3333 186.79 14.7067 186.51 15.2C186.243 15.68 186.11 16.2533 186.11 16.92C186.11 17.5867 186.243 18.1733 186.51 18.68C186.79 19.1733 187.15 19.5533 187.59 19.82C188.043 20.0867 188.523 20.22 189.03 20.22C189.55 20.22 190.037 20.0933 190.49 19.84C190.943 19.5733 191.303 19.2 191.57 18.72C191.837 18.2267 191.97 17.64 191.97 16.96Z" fill="#313131"/>
<path d="M55.46 35.5H54.32L50.89 30.31V35.5H49.75V28.54H50.89L54.32 33.72V28.54H55.46V35.5ZM64.087 28.55V32.98C64.087 33.5067 64.2237 33.9033 64.497 34.17C64.777 34.4367 65.1637 34.57 65.657 34.57C66.157 34.57 66.5437 34.4367 66.817 34.17C67.097 33.9033 67.237 33.5067 67.237 32.98V28.55H68.377V32.96C68.377 33.5267 68.2537 34.0067 68.007 34.4C67.7604 34.7933 67.4304 35.0867 67.017 35.28C66.6037 35.4733 66.147 35.57 65.647 35.57C65.147 35.57 64.6904 35.4733 64.277 35.28C63.8704 35.0867 63.547 34.7933 63.307 34.4C63.067 34.0067 62.947 33.5267 62.947 32.96V28.55H64.087ZM80.3513 28.55V29.48H78.5013V35.5H77.3613V29.48H75.5013V28.55H80.3513ZM91.1159 35.5L89.5159 32.72H88.6459V35.5H87.5059V28.55H89.9059C90.4392 28.55 90.8892 28.6433 91.2559 28.83C91.6292 29.0167 91.9059 29.2667 92.0859 29.58C92.2725 29.8933 92.3659 30.2433 92.3659 30.63C92.3659 31.0833 92.2325 31.4967 91.9659 31.87C91.7059 32.2367 91.3025 32.4867 90.7559 32.62L92.4759 35.5H91.1159ZM88.6459 31.81H89.9059C90.3325 31.81 90.6525 31.7033 90.8659 31.49C91.0859 31.2767 91.1959 30.99 91.1959 30.63C91.1959 30.27 91.0892 29.99 90.8759 29.79C90.6625 29.5833 90.3392 29.48 89.9059 29.48H88.6459V31.81ZM100.964 28.55V35.5H99.8242V28.55H100.964ZM108.081 32.01C108.081 31.33 108.238 30.72 108.551 30.18C108.871 29.64 109.301 29.22 109.841 28.92C110.388 28.6133 110.984 28.46 111.631 28.46C112.371 28.46 113.028 28.6433 113.601 29.01C114.181 29.37 114.601 29.8833 114.861 30.55H113.491C113.311 30.1833 113.061 29.91 112.741 29.73C112.421 29.55 112.051 29.46 111.631 29.46C111.171 29.46 110.761 29.5633 110.401 29.77C110.041 29.9767 109.758 30.2733 109.551 30.66C109.351 31.0467 109.251 31.4967 109.251 32.01C109.251 32.5233 109.351 32.9733 109.551 33.36C109.758 33.7467 110.041 34.0467 110.401 34.26C110.761 34.4667 111.171 34.57 111.631 34.57C112.051 34.57 112.421 34.48 112.741 34.3C113.061 34.12 113.311 33.8467 113.491 33.48H114.861C114.601 34.1467 114.181 34.66 113.601 35.02C113.028 35.38 112.371 35.56 111.631 35.56C110.978 35.56 110.381 35.41 109.841 35.11C109.301 34.8033 108.871 34.38 108.551 33.84C108.238 33.3 108.081 32.69 108.081 32.01ZM123.335 28.55V35.5H122.195V28.55H123.335ZM134.002 35.57C133.355 35.57 132.759 35.42 132.212 35.12C131.672 34.8133 131.242 34.39 130.922 33.85C130.609 33.3033 130.452 32.69 130.452 32.01C130.452 31.33 130.609 30.72 130.922 30.18C131.242 29.64 131.672 29.22 132.212 28.92C132.759 28.6133 133.355 28.46 134.002 28.46C134.655 28.46 135.252 28.6133 135.792 28.92C136.339 29.22 136.769 29.64 137.082 30.18C137.395 30.72 137.552 31.33 137.552 32.01C137.552 32.69 137.395 33.3033 137.082 33.85C136.769 34.39 136.339 34.8133 135.792 35.12C135.252 35.42 134.655 35.57 134.002 35.57ZM134.002 34.58C134.462 34.58 134.872 34.4767 135.232 34.27C135.592 34.0567 135.872 33.7567 136.072 33.37C136.279 32.9767 136.382 32.5233 136.382 32.01C136.382 31.4967 136.279 31.0467 136.072 30.66C135.872 30.2733 135.592 29.9767 135.232 29.77C134.872 29.5633 134.462 29.46 134.002 29.46C133.542 29.46 133.132 29.5633 132.772 29.77C132.412 29.9767 132.129 30.2733 131.922 30.66C131.722 31.0467 131.622 31.4967 131.622 32.01C131.622 32.5233 131.722 32.9767 131.922 33.37C132.129 33.7567 132.412 34.0567 132.772 34.27C133.132 34.4767 133.542 34.58 134.002 34.58ZM150.384 35.5H149.244L145.814 30.31V35.5H144.674V28.54H145.814L149.244 33.72V28.54H150.384V35.5ZM159.021 28.55V35.5H157.881V28.55H159.021ZM168.808 35.57C168.341 35.57 167.921 35.49 167.548 35.33C167.174 35.1633 166.881 34.93 166.668 34.63C166.454 34.33 166.348 33.98 166.348 33.58H167.568C167.594 33.88 167.711 34.1267 167.918 34.32C168.131 34.5133 168.428 34.61 168.808 34.61C169.201 34.61 169.508 34.5167 169.728 34.33C169.948 34.1367 170.058 33.89 170.058 33.59C170.058 33.3567 169.988 33.1667 169.848 33.02C169.714 32.8733 169.544 32.76 169.338 32.68C169.138 32.6 168.858 32.5133 168.498 32.42C168.044 32.3 167.674 32.18 167.388 32.06C167.108 31.9333 166.868 31.74 166.668 31.48C166.468 31.22 166.368 30.8733 166.368 30.44C166.368 30.04 166.468 29.69 166.668 29.39C166.868 29.09 167.148 28.86 167.508 28.7C167.868 28.54 168.284 28.46 168.758 28.46C169.431 28.46 169.981 28.63 170.408 28.97C170.841 29.3033 171.081 29.7633 171.128 30.35H169.868C169.848 30.0967 169.728 29.88 169.508 29.7C169.288 29.52 168.998 29.43 168.638 29.43C168.311 29.43 168.044 29.5133 167.838 29.68C167.631 29.8467 167.528 30.0867 167.528 30.4C167.528 30.6133 167.591 30.79 167.718 30.93C167.851 31.0633 168.018 31.17 168.218 31.25C168.418 31.33 168.691 31.4167 169.038 31.51C169.498 31.6367 169.871 31.7633 170.158 31.89C170.451 32.0167 170.698 32.2133 170.898 32.48C171.104 32.74 171.208 33.09 171.208 33.53C171.208 33.8833 171.111 34.2167 170.918 34.53C170.731 34.8433 170.454 35.0967 170.088 35.29C169.728 35.4767 169.301 35.57 168.808 35.57ZM183.043 28.55V29.48H181.193V35.5H180.053V29.48H178.193V28.55H183.043ZM194.387 34.08H191.477L190.977 35.5H189.787L192.277 28.54H193.597L196.087 35.5H194.887L194.387 34.08ZM194.067 33.15L192.937 29.92L191.797 33.15H194.067Z" fill="#575757"/>
</g>
<defs>
<clipPath id="clip0_2_3">
<rect width="1440" height="7680" fill="white" transform="translate(-119 -48)"/>
</clipPath>
</defs>
</svg>
